<?xml version="1.0" encoding="utf-8"?>
<!-- Generator: Adobe Illustrator 27.4.0, SVG Export Plug-In . SVG Version: 6.00 Build 0)  -->
<svg version="1.1" id="Layer_1" xmlns="http://www.w3.org/2000/svg" xmlns:xlink="http://www.w3.org/1999/xlink" x="0px" y="0px"
	 viewBox="0 0 26 26" style="enable-background:new 0 0 26 26;" xml:space="preserve">
<style type="text/css">
	.st0{fill:#969696;}
</style>
<path class="st0" d="M25,26c-0.2,0-0.5-0.1-0.7-0.3L0.3,1.6c-0.4-0.4-0.4-1,0-1.4s1-0.4,1.4,0l24.1,24.1c0.4,0.4,0.4,1,0,1.4
	C25.5,25.9,25.3,26,25,26z"/>
<path class="st0" d="M1,26c-0.2,0-0.5-0.1-0.7-0.3c-0.4-0.4-0.4-1,0-1.4L24.4,0.3c0.4-0.4,1-0.4,1.4,0s0.4,1,0,1.4L1.6,25.7
	C1.5,25.9,1.2,26,1,26z"/>
</svg>
