<?xml version="1.0" encoding="utf-8"?>
<!-- Generator: Adobe Illustrator 27.4.0, SVG Export Plug-In . SVG Version: 6.00 Build 0)  -->
<svg version="1.1" id="Layer_1" xmlns="http://www.w3.org/2000/svg" xmlns:xlink="http://www.w3.org/1999/xlink" x="0px" y="0px"
	 viewBox="0 0 210 158" style="enable-background:new 0 0 210 158;" xml:space="preserve">
<style type="text/css">
	.st0{fill-rule:evenodd;clip-rule:evenodd;fill:#FFFFFF;}
</style>
<path class="st0" d="M26.3,131.7H8.8c-4.8,0-8.8-3.9-8.8-8.8v-17.6h131.3v-79h40.8c9.8,0,14,5.1,16.9,9.7
	c5.2,8.3,13.4,21.4,18.4,29.7c1.6,2.7,2.5,5.9,2.5,9.1v39.3c0,9.8-6.4,17.6-17.5,17.6h-8.8c0,14.5-11.8,26.3-26.3,26.3
	s-26.3-11.8-26.3-26.3H78.8c0,14.5-11.8,26.3-26.3,26.3S26.3,146.2,26.3,131.7z M52.5,121.1c5.8,0,10.5,4.7,10.5,10.5
	c0,5.8-4.7,10.5-10.5,10.5S42,137.5,42,131.7C42,125.8,46.7,121.1,52.5,121.1z M157.5,121.1c5.8,0,10.5,4.7,10.5,10.5
	c0,5.8-4.7,10.5-10.5,10.5c-5.8,0-10.5-4.7-10.5-10.5C147,125.8,151.7,121.1,157.5,121.1z M122.5,96.6H0V8.8C0,3.9,3.9,0,8.8,0h105
	c4.8,0,8.8,3.9,8.8,8.8L122.5,96.6L122.5,96.6z M148.8,43.9v26.3H190l-12.5-21.9c-1.6-2.7-4.5-4.4-7.6-4.4H148.8z"/>
</svg>
