<?xml version="1.0" encoding="utf-8"?>
<!-- Generator: Adobe Illustrator 25.3.0, SVG Export Plug-In . SVG Version: 6.00 Build 0)  -->
<svg version="1.1" id="Layer_1" xmlns="http://www.w3.org/2000/svg" xmlns:xlink="http://www.w3.org/1999/xlink" x="0px" y="0px"
	 viewBox="0 0 211.83 158.88" style="enable-background:new 0 0 211.83 158.88;" xml:space="preserve">
<style type="text/css">
	.st0{fill-rule:evenodd;clip-rule:evenodd;fill:#FFFFFF;}
</style>
<path class="st0" d="M26.48,132.4H8.83c-4.87,0-8.83-3.95-8.83-8.83v-17.65h132.4V26.48h41.19c9.86,0,14.12,5.08,17.09,9.77
	c5.24,8.3,13.56,21.47,18.61,29.82c1.66,2.75,2.54,5.91,2.54,9.14v39.54c0,9.89-6.43,17.65-17.65,17.65h-8.83
	c0,14.62-11.86,26.48-26.48,26.48c-14.62,0-26.48-11.86-26.48-26.48H79.44c0,14.62-11.86,26.48-26.48,26.48
	S26.48,147.01,26.48,132.4z M52.96,121.8c5.84,0,10.59,4.75,10.59,10.59c0,5.84-4.75,10.59-10.59,10.59s-10.59-4.75-10.59-10.59
	C42.37,126.55,47.12,121.8,52.96,121.8z M158.88,121.8c5.84,0,10.59,4.75,10.59,10.59c0,5.84-4.75,10.59-10.59,10.59
	c-5.84,0-10.59-4.75-10.59-10.59C148.28,126.55,153.03,121.8,158.88,121.8z M123.57,97.09H0V8.83C0,3.95,3.95,0,8.83,0h105.92
	c4.87,0,8.83,3.95,8.83,8.83V97.09z M150.05,44.13v26.48h41.62l-12.6-22.03c-1.57-2.75-4.49-4.45-7.66-4.45L150.05,44.13z"/>
</svg>
