<?xml version="1.0" encoding="utf-8"?>
<!-- Generator: Adobe Illustrator 25.3.0, SVG Export Plug-In . SVG Version: 6.00 Build 0)  -->
<svg version="1.1" id="Layer_1" xmlns="http://www.w3.org/2000/svg" xmlns:xlink="http://www.w3.org/1999/xlink" x="0px" y="0px"
	 viewBox="0 0 71.03 71.03" style="enable-background:new 0 0 71.03 71.03;" xml:space="preserve">
<style type="text/css">
	.st0{fill:none;stroke:#969696;stroke-width:1.0273;stroke-miterlimit:10;}
	.st1{fill:#969696;}
	.st2{fill-rule:evenodd;clip-rule:evenodd;fill:#969696;}
</style>
<g>
	<g>
		<path class="st0" d="M47.23,70.51H23.92c-12.89,0-23.34-10.45-23.34-23.34V23.86c0-12.89,10.45-23.35,23.34-23.35l23.31,0
			c12.89,0,23.35,10.45,23.35,23.35v23.31C70.57,60.06,60.12,70.51,47.23,70.51z"/>
	</g>
	<path class="st2" d="M55.78,50.85c1.88-1.65,3.1-4.04,3.1-6.73c0-2.36-0.93-4.49-2.42-6.09v-12.4L36.83,14.81L17.19,25.52v21.65
		l19.63,10.47l9.76-5.21c1.03,0.41,2.15,0.65,3.33,0.65c1.61,0,3.1-0.46,4.41-1.21l4.27,5.76l1.43-1.06L55.78,50.85z M35.93,55.14
		L18.98,46.1V27.45l16.95,8.83V55.14z M37.72,55.14V36.28l9.04-4.65l0.05,0.03l0.04-0.07l7.82-4.03v8.99
		c-1.38-0.87-3.01-1.4-4.76-1.4c-4.95,0-8.97,4.02-8.97,8.97c0,3.01,1.5,5.66,3.77,7.29L37.72,55.14z M49.91,51.31
		c-3.96,0-7.18-3.23-7.18-7.19s3.22-7.18,7.18-7.18c3.96,0,7.18,3.22,7.18,7.18S53.88,51.31,49.91,51.31z M49.26,45.36l-2.33-2.05
		l-1.18,1.34l3.62,3.18l5.29-5.57l-1.29-1.23L49.26,45.36z M20.05,25.99l7.76-4.23l17.02,8.86l-7.99,4.11L20.05,25.99z M36.82,16.84
		l16.78,9.26l-6.84,3.52L29.7,20.73L36.82,16.84z"/>
</g>
</svg>
