<?xml version="1.0" encoding="utf-8"?>
<!-- Generator: Adobe Illustrator 25.3.0, SVG Export Plug-In . SVG Version: 6.00 Build 0)  -->
<svg version="1.1" id="Layer_1" xmlns="http://www.w3.org/2000/svg" xmlns:xlink="http://www.w3.org/1999/xlink" x="0px" y="0px"
	 viewBox="0 0 71.03 71.03" style="enable-background:new 0 0 71.03 71.03;" xml:space="preserve">
<style type="text/css">
	.st0{fill:none;stroke:#969696;stroke-width:1.0273;stroke-miterlimit:10;}
	.st1{fill:#969696;}
	.st2{fill-rule:evenodd;clip-rule:evenodd;fill:#969696;}
</style>
<g>
	<g>
		<path class="st0" d="M47.17,70.51H23.86c-12.89,0-23.35-10.45-23.35-23.34V23.86c0-12.89,10.45-23.35,23.35-23.35l23.31,0
			c12.89,0,23.34,10.45,23.34,23.35v23.31C70.51,60.06,60.06,70.51,47.17,70.51z"/>
	</g>
	<g>
		<path class="st1" d="M35.51,39.47c4.05,0,7.34-3.29,7.34-7.34V22.04c0-4.05-3.29-7.34-7.34-7.34c-4.05,0-7.34,3.29-7.34,7.34
			v10.09C28.18,36.18,31.47,39.47,35.51,39.47z M30.1,22.04c0-2.98,2.43-5.41,5.41-5.41c2.98,0,5.41,2.43,5.41,5.41v10.09
			c0,2.98-2.43,5.41-5.41,5.41c-2.98,0-5.41-2.43-5.41-5.41V22.04z"/>
		<path class="st1" d="M49.8,33.15c-0.49-0.2-1.05,0.05-1.25,0.55c-2.33,5.96-7.45,9.81-13.04,9.81S24.8,39.66,22.47,33.7
			c-0.2-0.5-0.75-0.74-1.25-0.55c-0.49,0.19-0.74,0.75-0.55,1.25c2.49,6.37,7.86,10.59,13.87,11v14.27c0,0.53,0.43,0.96,0.96,0.96
			c0.53,0,0.96-0.43,0.96-0.96V45.4c6.01-0.41,11.39-4.63,13.87-11C50.54,33.9,50.3,33.35,49.8,33.15z"/>
	</g>
</g>
</svg>
