<?xml version="1.0" encoding="utf-8"?>
<!-- Generator: Adobe Illustrator 27.4.0, SVG Export Plug-In . SVG Version: 6.00 Build 0)  -->
<svg version="1.1" id="Layer_1" xmlns="http://www.w3.org/2000/svg" xmlns:xlink="http://www.w3.org/1999/xlink" x="0px" y="0px"
	 viewBox="0 0 70 70" style="enable-background:new 0 0 70 70;" xml:space="preserve">
<style type="text/css">
	.st0{fill:#969696;}
	.st1{fill-rule:evenodd;clip-rule:evenodd;fill:#969696;}
</style>
<g>
	<g>
		<path class="st0" d="M46.5,70h-23C10.5,70,0,59.5,0,46.5v-23C0,10.6,10.5,0,23.5,0h23C59.4,0,70,10.6,70,23.5v23
			C70,59.5,59.4,70,46.5,70z M23.5,1C11.1,1,1,11.1,1,23.5v23C1,58.9,11.1,69,23.5,69h23C58.9,69,69,58.9,69,46.5v-23
			C69,11.1,58.9,1,46.5,1H23.5z"/>
	</g>
	<path class="st1" d="M54.9,50.1c1.9-1.6,3.1-4,3.1-6.6c0-2.3-0.9-4.4-2.4-6V25.3L36.2,14.6L16.9,25.2v21.3l19.3,10.3l9.6-5.1
		c1,0.4,2.1,0.6,3.3,0.6c1.6,0,3.1-0.5,4.3-1.2l4.2,5.7l1.4-1L54.9,50.1z M35.3,54.3l-16.7-8.9V27.1l16.7,8.7V54.3z M37.1,54.3V35.8
		l8.9-4.6l0,0l0-0.1l7.7-4V36c-1.4-0.9-3-1.4-4.7-1.4c-4.9,0-8.8,4-8.8,8.8c0,3,1.5,5.6,3.7,7.2L37.1,54.3z M49.1,50.6
		c-3.9,0-7.1-3.2-7.1-7.1s3.2-7.1,7.1-7.1s7.1,3.2,7.1,7.1S53,50.6,49.1,50.6z M48.5,44.7l-2.3-2L45,44l3.6,3.1l5.2-5.5l-1.3-1.2
		L48.5,44.7z M19.7,25.6l7.6-4.2l16.8,8.7l-7.9,4.1L19.7,25.6z M36.2,16.6l16.5,9.1L46,29.2l-16.8-8.8L36.2,16.6z"/>
</g>
</svg>
