<?xml version="1.0" encoding="utf-8"?>
<!-- Generator: Adobe Illustrator 25.3.0, SVG Export Plug-In . SVG Version: 6.00 Build 0)  -->
<svg version="1.1" id="Layer_1" xmlns="http://www.w3.org/2000/svg" xmlns:xlink="http://www.w3.org/1999/xlink" x="0px" y="0px"
	 viewBox="0 0 71.03 71.03" style="enable-background:new 0 0 71.03 71.03;" xml:space="preserve">
<style type="text/css">
	.st0{fill:none;stroke:#969696;stroke-width:1.0273;stroke-miterlimit:10;}
	.st1{fill:#969696;}
	.st2{fill-rule:evenodd;clip-rule:evenodd;fill:#969696;}
</style>
<g>
	<g>
		<path class="st0" d="M47.17,70.51H23.86c-12.89,0-23.35-10.45-23.35-23.34V23.86c0-12.89,10.45-23.35,23.35-23.35l23.31,0
			c12.89,0,23.34,10.45,23.34,23.35v23.31C70.51,60.06,60.06,70.51,47.17,70.51z"/>
	</g>
	<path class="st1" d="M37.99,58.78c-0.13,0-0.28-0.08-0.38-0.22c-0.07-0.1-0.19-0.31-0.1-0.6c0.22-0.74,1.57-4.95,2.56-8.02
		l0.39-1.2l16.65-16.58c0.16-0.16,0.37-0.25,0.6-0.25s0.44,0.09,0.6,0.25l5.8,5.78c0.17,0.17,0.25,0.36,0.25,0.58
		c0,0.23-0.1,0.47-0.25,0.62L47.48,55.77C39.56,58.52,38.79,58.78,37.99,58.78z M39.81,56.44l7.28-2.38l-4.93-4.93L39.81,56.44z
		 M43.59,48.09l4.55,4.56l14.1-14.1l-4.53-4.51L43.59,48.09z M19.21,45.63c-0.44,0-0.87-0.43-0.87-0.87s0.43-0.87,0.87-0.87h13.16
		c0.44,0,0.87,0.43,0.87,0.87s-0.43,0.87-0.87,0.87H19.21z M19.21,38.45c-0.44,0-0.87-0.43-0.87-0.87c0-0.44,0.43-0.87,0.87-0.87
		h25.12c0.44,0,0.87,0.43,0.87,0.87c0,0.44-0.43,0.87-0.87,0.87H19.21z M19.21,31.28c-0.44,0-0.87-0.43-0.87-0.87
		s0.43-0.87,0.87-0.87h25.12c0.44,0,0.87,0.43,0.87,0.87s-0.43,0.87-0.87,0.87H19.21z M19.21,24.1c-0.44,0-0.87-0.43-0.87-0.87
		s0.43-0.87,0.87-0.87h25.12c0.44,0,0.87,0.43,0.87,0.87s-0.43,0.87-0.87,0.87H19.21z"/>
</g>
</svg>
