<?xml version="1.0" encoding="utf-8"?>
<!-- Generator: Adobe Illustrator 27.4.0, SVG Export Plug-In . SVG Version: 6.00 Build 0)  -->
<svg version="1.1" id="Layer_1" xmlns="http://www.w3.org/2000/svg" xmlns:xlink="http://www.w3.org/1999/xlink" x="0px" y="0px"
	 viewBox="0 0 70 70" style="enable-background:new 0 0 70 70;" xml:space="preserve">
<style type="text/css">
	.st0{fill:#969696;}
</style>
<g>
	<g>
		<path class="st0" d="M46.5,70h-23C10.6,70,0,59.5,0,46.5v-23C0,10.6,10.6,0,23.5,0h23C59.5,0,70,10.6,70,23.5v23
			C70,59.5,59.5,70,46.5,70z M23.5,1C11.1,1,1,11.1,1,23.5v23C1,58.9,11.1,69,23.5,69h23C58.9,69,69,58.9,69,46.5v-23
			C69,11.1,58.9,1,46.5,1H23.5z"/>
	</g>
	<g>
		<path class="st0" d="M35,38.9c4,0,7.2-3.2,7.2-7.2v-9.9c0-4-3.2-7.2-7.2-7.2s-7.2,3.2-7.2,7.2v9.9C27.8,35.7,31,38.9,35,38.9z
			 M29.7,21.7c0-2.9,2.4-5.3,5.3-5.3c2.9,0,5.3,2.4,5.3,5.3v9.9c0,2.9-2.4,5.3-5.3,5.3s-5.3-2.4-5.3-5.3
			C29.7,31.7,29.7,21.7,29.7,21.7z"/>
		<path class="st0" d="M49.1,32.7c-0.5-0.2-1,0-1.2,0.5c-2.3,5.9-7.3,9.7-12.9,9.7s-10.6-3.8-12.9-9.7c-0.2-0.5-0.7-0.7-1.2-0.5
			c-0.5,0.2-0.7,0.7-0.5,1.2c2.5,6.3,7.7,10.4,13.7,10.8v14.1c0,0.5,0.4,0.9,0.9,0.9s0.9-0.4,0.9-0.9V44.7
			c5.9-0.4,11.2-4.6,13.7-10.8C49.8,33.4,49.6,32.9,49.1,32.7z"/>
	</g>
</g>
</svg>
