<?xml version="1.0" encoding="utf-8"?>
<!-- Generator: Adobe Illustrator 25.3.0, SVG Export Plug-In . SVG Version: 6.00 Build 0)  -->
<svg version="1.1" id="Layer_1" xmlns="http://www.w3.org/2000/svg" xmlns:xlink="http://www.w3.org/1999/xlink" x="0px" y="0px"
	 viewBox="0 0 71.03 71.03" style="enable-background:new 0 0 71.03 71.03;" xml:space="preserve">
<style type="text/css">
	.st0{fill:none;stroke:#969696;stroke-width:1.0273;stroke-miterlimit:10;}
	.st1{fill:#969696;}
	.st2{fill-rule:evenodd;clip-rule:evenodd;fill:#969696;}
</style>
<g>
	<g>
		<path class="st0" d="M47.17,70.51H23.86c-12.89,0-23.35-10.45-23.35-23.34V23.86c0-12.89,10.45-23.35,23.35-23.35l23.31,0
			c12.89,0,23.34,10.45,23.34,23.35v23.31C70.51,60.06,60.06,70.51,47.17,70.51z"/>
	</g>
	<path class="st1" d="M51.05,29.64h-4.63v-5.39c0-1.4-1.14-2.54-2.54-2.54h-23.9c-1.4,0-2.54,1.14-2.54,2.54v21.97
		c0,0.32,0.2,0.61,0.5,0.72c0.09,0.03,0.18,0.05,0.27,0.05c0.22,0,0.43-0.09,0.58-0.26l5.17-5.88h0.65v5.39
		c0,1.4,1.14,2.54,2.54,2.54h19.99l5.19,4.25c0.14,0.12,0.31,0.17,0.49,0.17c0.11,0,0.22-0.02,0.33-0.07
		c0.27-0.13,0.44-0.4,0.44-0.7V32.18C53.59,30.78,52.45,29.64,51.05,29.64z M23.61,39.3c-0.22,0-0.43,0.09-0.58,0.26l-4.05,4.61
		V24.24c0-0.55,0.45-1,1-1h23.9c0.55,0,1,0.45,1,1V38.3c0,0.55-0.45,1-1,1H23.61z M52.05,50.8l-4.15-3.39
		c-0.14-0.11-0.31-0.17-0.49-0.17H27.15c-0.55,0-1-0.45-1-1v-5.39h17.72c1.4,0,2.54-1.14,2.54-2.54v-7.12h4.63c0.55,0,1,0.45,1,1
		V50.8z"/>
</g>
</svg>
