<?xml version="1.0" encoding="utf-8"?>
<!-- Generator: Adobe Illustrator 27.4.0, SVG Export Plug-In . SVG Version: 6.00 Build 0)  -->
<svg version="1.1" id="Layer_1" xmlns="http://www.w3.org/2000/svg" xmlns:xlink="http://www.w3.org/1999/xlink" x="0px" y="0px"
	 viewBox="0 0 70 70" style="enable-background:new 0 0 70 70;" xml:space="preserve">
<style type="text/css">
	.st0{fill:#969696;}
</style>
<g>
	<g>
		<path class="st0" d="M46.5,70h-23C10.6,70,0,59.5,0,46.5v-23C0,10.6,10.6,0,23.5,0h23C59.5,0,70,10.6,70,23.5v23
			C70,59.5,59.5,70,46.5,70z M23.5,1C11.1,1,1,11.1,1,23.5v23C1,58.9,11.1,69,23.5,69h23C58.9,69,69,58.9,69,46.5v-23
			C69,11.1,58.9,1,46.5,1H23.5z"/>
	</g>
	<path class="st0" d="M50.3,29.2h-4.6v-5.3c0-1.4-1.1-2.5-2.5-2.5H19.7c-1.4,0-2.5,1.1-2.5,2.5v21.7c0,0.3,0.2,0.6,0.5,0.7
		c0.1,0,0.2,0,0.3,0c0.2,0,0.4-0.1,0.6-0.3l5.1-5.8h0.6v5.3c0,1.4,1.1,2.5,2.5,2.5h19.7l5.1,4.2c0.1,0.1,0.3,0.2,0.5,0.2
		c0.1,0,0.2,0,0.3-0.1c0.3-0.1,0.4-0.4,0.4-0.7v-20C52.8,30.3,51.7,29.2,50.3,29.2z M23.3,38.7c-0.2,0-0.4,0.1-0.6,0.3l-4,4.5V23.9
		c0-0.5,0.4-1,1-1h23.6c0.5,0,1,0.4,1,1v13.9c0,0.5-0.4,1-1,1H23.3z M51.3,50.1l-4.1-3.3c-0.1-0.1-0.3-0.2-0.5-0.2h-20
		c-0.5,0-1-0.4-1-1v-5.3h17.5c1.4,0,2.5-1.1,2.5-2.5v-7h4.6c0.5,0,1,0.4,1,1L51.3,50.1L51.3,50.1z"/>
</g>
</svg>
