<?xml version="1.0" encoding="utf-8"?>
<!-- Generator: Adobe Illustrator 27.4.0, SVG Export Plug-In . SVG Version: 6.00 Build 0)  -->
<svg version="1.1" id="Layer_1" xmlns="http://www.w3.org/2000/svg" xmlns:xlink="http://www.w3.org/1999/xlink" x="0px" y="0px"
	 viewBox="0 0 70 70" style="enable-background:new 0 0 70 70;" xml:space="preserve">
<style type="text/css">
	.st0{fill:#969696;}
</style>
<g>
	<g>
		<path class="st0" d="M46.5,70h-23C10.6,70,0,59.5,0,46.5v-23C0,10.6,10.6,0,23.5,0h23C59.5,0,70,10.6,70,23.5v23
			C70,59.5,59.5,70,46.5,70z M23.5,1C11.1,1,1,11.1,1,23.5v23C1,58.9,11.1,69,23.5,69h23C58.9,69,69,58.9,69,46.5v-23
			C69,11.1,58.9,1,46.5,1H23.5z"/>
	</g>
	<path class="st0" d="M37.4,57.9c-0.1,0-0.3-0.1-0.4-0.2c-0.1-0.1-0.2-0.3-0.1-0.6c0.2-0.7,1.5-4.9,2.5-7.9l0.4-1.2l16.4-16.3
		c0.2-0.2,0.4-0.2,0.6-0.2s0.4,0.1,0.6,0.2l5.7,5.7c0.2,0.2,0.2,0.4,0.2,0.6c0,0.2-0.1,0.5-0.2,0.6L46.8,55
		C39,57.7,38.2,57.9,37.4,57.9z M39.2,55.6l7.2-2.3l-4.9-4.9L39.2,55.6z M43,47.4l4.5,4.5L61.3,38l-4.5-4.4L43,47.4z M18.9,45
		c-0.4,0-0.9-0.4-0.9-0.9c0-0.4,0.4-0.9,0.9-0.9h13c0.4,0,0.9,0.4,0.9,0.9c0,0.4-0.4,0.9-0.9,0.9H18.9z M18.9,37.9
		c-0.4,0-0.9-0.4-0.9-0.9c0-0.4,0.4-0.9,0.9-0.9h24.8c0.4,0,0.9,0.4,0.9,0.9c0,0.4-0.4,0.9-0.9,0.9H18.9z M18.9,30.8
		c-0.4,0-0.9-0.4-0.9-0.9c0-0.4,0.4-0.9,0.9-0.9h24.8c0.4,0,0.9,0.4,0.9,0.9c0,0.4-0.4,0.9-0.9,0.9H18.9z M18.9,23.8
		c-0.4,0-0.9-0.4-0.9-0.9c0-0.4,0.4-0.9,0.9-0.9h24.8c0.4,0,0.9,0.4,0.9,0.9c0,0.4-0.4,0.9-0.9,0.9H18.9z"/>
</g>
</svg>
