<?xml version="1.0" encoding="utf-8"?>
<!-- Generator: Adobe Illustrator 25.3.0, SVG Export Plug-In . SVG Version: 6.00 Build 0)  -->
<svg version="1.1" id="Layer_1" xmlns="http://www.w3.org/2000/svg" xmlns:xlink="http://www.w3.org/1999/xlink" x="0px" y="0px"
	 viewBox="0 0 158.92 106.82" style="enable-background:new 0 0 158.92 106.82;" xml:space="preserve">
<style type="text/css">
	.st0{fill:#FFFFFF;}
</style>
<g>
	<g>
		<g>
			<path class="st0" d="M9.07,96.77c-1.07-0.05-2.19-0.3-3.34-0.74c-1.15-0.44-2.15-1.01-2.98-1.68c-0.82-0.67-1.46-1.42-1.92-2.25
				c-0.43-0.8-0.68-1.67-0.75-2.58c-0.07-0.9,0.09-1.86,0.46-2.84c0.35-0.9,0.85-1.68,1.5-2.32c0.65-0.64,1.42-1.12,2.29-1.43
				c0.81-0.29,1.71-0.44,2.67-0.44l0.26,0c1.07,0.03,2.2,0.27,3.37,0.72c1.14,0.44,2.14,1.01,2.96,1.71
				c0.81,0.69,1.45,1.46,1.9,2.28c0.44,0.81,0.7,1.68,0.76,2.59c0.07,0.91-0.08,1.84-0.44,2.76c-0.36,0.95-0.88,1.74-1.55,2.37
				c-0.67,0.67-1.44,1.16-2.31,1.46c-0.76,0.26-1.59,0.4-2.47,0.4C9.37,96.78,9.22,96.78,9.07,96.77z M8.29,86.05
				c-0.48,0-0.95,0.09-1.38,0.25c-0.98,0.38-1.67,1.07-2.04,2.04c-0.4,1.03-0.33,2.02,0.19,2.96c0.49,0.89,1.31,1.55,2.41,1.98
				c0.61,0.23,1.21,0.35,1.78,0.35l0,0c0.45,0,0.89-0.07,1.31-0.21c1.03-0.34,1.75-1.04,2.14-2.07c0.38-0.98,0.3-1.96-0.23-2.93
				c-0.51-0.92-1.31-1.6-2.37-2.01C9.48,86.17,8.86,86.05,8.29,86.05z M23.16,84.6c-0.06,0-0.12-0.01-0.2-0.03L0.19,76.44
				c-0.15-0.05-0.16-0.08-0.17-0.1c-0.02-0.04-0.05-0.15,0.04-0.4l1.07-2.78c0.04-0.11,0.11-0.25,0.21-0.29
				c0.04-0.01,0.07-0.01,0.1-0.01c0.06,0,0.1,0.01,0.14,0.03l8.45,3.2c0.08,0.03,0.17,0.05,0.26,0.05c0.1,0,0.21-0.02,0.31-0.07
				c0.18-0.08,0.32-0.23,0.39-0.42l0.96-2.61c0.14-0.38-0.05-0.8-0.43-0.95l-5.08-1.87c-0.47-0.18-0.79-0.41-0.88-0.64
				c-0.06-0.15-0.12-0.52,0.16-1.31l2.97-8.12c0.04-0.11,0.14-0.32,0.23-0.32c0.03,0,0.09,0.01,0.18,0.04l4.22,1.62
				c0.2,0.08,0.27,0.1,0.12,0.49l-1.99,5.19c-0.15,0.38,0.04,0.81,0.43,0.96c2.59,0.99,5,1.92,7.22,2.79
				c2.23,0.87,4.17,1.61,5.8,2.21c0.08,0.03,0.24,0.11,0.28,0.2c0.01,0.04,0.05,0.19-0.08,0.53l-0.79,2.06
				c-0.14,0.37-0.28,0.37-0.36,0.37c-0.09,0-0.21-0.02-0.34-0.07c-1.06-0.35-2.26-0.74-3.61-1.18c-0.79-0.28-1.64-0.56-2.54-0.85
				c-0.08-0.02-0.15-0.04-0.23-0.04c-0.29,0-0.57,0.17-0.68,0.46l-1.11,2.68c-0.08,0.19-0.08,0.39,0.01,0.58
				c0.08,0.18,0.23,0.33,0.42,0.4l8.4,3.14c0.15,0.06,0.17,0.12,0.19,0.15c0.04,0.1,0,0.25-0.04,0.36l-0.91,2.38
				c-0.05,0.14-0.12,0.24-0.18,0.27L23.16,84.6z"/>
		</g>
		<g>
			<path class="st0" d="M35.29,102.14c-0.58-0.08-0.96-0.28-1.17-0.61c-0.23-0.37-0.3-0.91-0.21-1.59l1.19-8.34
				c0.03-0.24,0.08-0.33,0.09-0.35c0.06-0.01,0.1-0.01,0.14-0.01c0.05,0,0.08,0,0.11,0.01l3.83,0.64c0.14,0.02,0.2,0.06,0.2,0.07
				c0.02,0.03,0.04,0.15,0.01,0.38l-0.99,5.43c-0.03,0.19,0.01,0.39,0.12,0.55c0.11,0.16,0.28,0.27,0.48,0.31l12.4,2.25
				c0.19,0.03,0.24,0.08,0.25,0.08l0,0c0,0,0.02,0.06,0,0.23l-0.49,2.89c-0.06,0.34-0.15,0.42-0.15,0.42l-0.05,0
				C51.03,104.51,35.29,102.14,35.29,102.14z M52.47,94.11l-3.62-0.61c-0.23-0.04-0.31-0.05-0.24-0.47l3.34-21.1
				c0.06-0.37,0.15-0.37,0.22-0.37l4.37,0.73c0.16,0.03,0.21,0.07,0.22,0.08c0,0,0.05,0.09-0.01,0.36l-1.24,6.73
				c-0.03,0.2,0.01,0.4,0.12,0.56c0.11,0.16,0.29,0.27,0.48,0.31l3.17,0.53c0.21,0.03,0.28,0.11,0.33,0.18
				c0.02,0.04,0.11,0.17,0.06,0.5l-0.53,3.12c-0.06,0.33-0.18,0.42-0.22,0.46c-0.07,0.05-0.14,0.08-0.24,0.08l-3.4-0.56
				c-0.04-0.01-0.08-0.01-0.12-0.01c-0.35,0-0.66,0.25-0.73,0.61l-1.58,8.51c-0.09,0.38-0.21,0.38-0.27,0.38
				C52.55,94.12,52.51,94.11,52.47,94.11z M44.59,88.15c-0.05,0-0.2-0.02-0.46-0.2c-1.92-1.45-3.59-3.37-4.94-5.68
				c-0.12-0.2-0.33-0.34-0.56-0.36c-0.03,0-0.05,0-0.08,0c-0.21,0-0.4,0.09-0.54,0.24c-1.97,2.13-4.36,3.83-7.11,5.05
				c-0.16,0.07-0.28,0.11-0.38,0.11c-0.2-0.04-0.26-0.08-0.32-0.21l-1.49-2.38c-0.03-0.06-0.04-0.18-0.01-0.3
				c0.01-0.04,0.03-0.13,0.24-0.24c1.29-0.68,2.47-1.52,3.51-2.49c1.04-0.96,1.97-2.03,2.77-3.18c0.8-1.15,1.48-2.4,2-3.7
				c0.52-1.28,0.93-2.61,1.2-3.95c0.08-0.39,0.21-0.67,0.37-0.79c0.11-0.08,0.21-0.12,0.34-0.12l3.85,0.64
				c0.33,0.05,0.39,0.19,0.43,0.26c0.1,0.2,0.11,0.47,0.04,0.8c-0.48,2.16-1.24,4.21-2.28,6.1c-0.13,0.24-0.12,0.53,0.03,0.76
				c0.84,1.31,1.81,2.47,2.87,3.45c1.04,0.96,2.1,1.84,3.15,2.63c0.13,0.09,0.12,0.12,0.12,0.18c-0.01,0.17-0.05,0.29-0.12,0.37
				l-2.46,2.92C44.67,88.15,44.61,88.15,44.59,88.15z"/>
		</g>
		<g>
			<path class="st0" d="M68.01,106.82c-0.32,0-0.47-0.12-0.56-0.22c-0.17-0.19-0.26-0.45-0.28-0.8l-0.24-5.78
				c-0.02-0.41,0.1-0.59,0.2-0.69c0.17-0.18,0.39-0.27,0.68-0.29l12.51-0.56c0.39-0.02,0.7-0.34,0.71-0.73l0.02-1.16
				c0-0.2-0.08-0.4-0.22-0.54c-0.14-0.14-0.33-0.21-0.52-0.21c-0.01,0-13.64,0.42-13.64,0.42c-0.14,0-0.18-0.04-0.2-0.07
				c-0.05-0.05-0.11-0.14-0.11-0.35l-0.02-2.28c0-0.42,0.08-0.42,0.31-0.42l6.65-0.19c0.22-0.01,0.42-0.11,0.56-0.28
				c0.14-0.17,0.19-0.39,0.15-0.6c-0.02-0.09-0.03-0.19-0.03-0.3l-0.09-1.8c-0.02-0.39-0.35-0.7-0.74-0.7
				c-0.01,0-9.06,0.29-9.06,0.29l-0.2-0.03c-0.07-0.08-0.11-0.21-0.11-0.39l-0.03-2.78c0-0.11,0.01-0.27,0.09-0.35
				c0.02-0.02,0.06-0.07,0.23-0.07l24.21-0.42c0.16,0,0.21,0.04,0.23,0.07c0.07,0.08,0.09,0.23,0.09,0.35l0.03,2.36
				c0,0.15-0.02,0.27-0.07,0.31c-0.06,0.06-0.16,0.1-0.3,0.11l-9.06,0.33c-0.4,0.01-0.72,0.35-0.71,0.75l0.02,1.93
				c0,0.07,0,0.13-0.02,0.19c-0.05,0.22,0.01,0.45,0.16,0.63c0.14,0.17,0.35,0.26,0.57,0.26c0.01,0,6-0.18,6.01-0.18
				c0.41,0,0.54,0.1,0.62,0.18c0.14,0.15,0.21,0.42,0.2,0.78l-0.14,6.19c-0.01,0.33-0.1,0.58-0.26,0.76
				c-0.09,0.11-0.26,0.25-0.62,0.27l-12.36,0.41c-0.4,0.01-0.72,0.34-0.72,0.75l0.01,1.08c0,0.41,0.33,0.73,0.74,0.73
				c0,0,13.41-0.03,13.41-0.03c0.17,0,0.22,0.04,0.23,0.06c0.08,0.08,0.09,0.23,0.09,0.35l-0.02,1.76c0,0.13-0.01,0.28-0.08,0.37
				c-0.02,0.02-0.06,0.07-0.23,0.07L68.01,106.82L68.01,106.82z M67.25,82.81c-0.42,0-0.6-0.15-0.7-0.26
				c-0.2-0.22-0.3-0.53-0.32-0.95l-0.26-8.06c-0.03-0.58,0.17-0.79,0.24-0.86c0.19-0.2,0.46-0.31,0.81-0.33
				c0,0,18.05-0.24,18.06-0.24c0.38,0,0.57,0.08,0.73,0.25c0.2,0.21,0.29,0.5,0.27,0.9l-0.12,7.97c-0.01,0.41-0.11,0.72-0.3,0.94
				c-0.1,0.12-0.28,0.27-0.71,0.28l-17.69,0.35H67.25z M71.31,75.69c-0.2,0-0.39,0.09-0.52,0.23c-0.14,0.14-0.21,0.33-0.21,0.53
				l0.06,2.2c0.01,0.4,0.34,0.72,0.74,0.72c0,0,9.61-0.14,9.61-0.14c0.41-0.01,0.73-0.34,0.73-0.75l-0.02-2.2
				c0-0.2-0.08-0.38-0.22-0.52c-0.14-0.14-0.32-0.21-0.52-0.21C80.95,75.55,71.31,75.69,71.31,75.69z"/>
		</g>
		<g>
			<path class="st0" d="M116.78,97.83c-0.08,0-0.17,0-0.24-0.37l-4.98-26.89c-0.05-0.25-0.01-0.36,0-0.39
				c0.01-0.01,0.06-0.05,0.2-0.08l4.23-0.78c0.05-0.01,0.1-0.02,0.15-0.02c0.07,0,0.15,0,0.2,0.35l1.36,8.7
				c0.03,0.2,0.14,0.38,0.31,0.49c0.12,0.09,0.27,0.13,0.42,0.13c0.05,0,0.1,0,0.14-0.01l2.87-0.57c0.04,0,0.07,0,0.11,0
				c0.14,0,0.2,0.02,0.26,0.07c0.04,0.03,0.16,0.13,0.23,0.45l0.58,3.11c0.06,0.33-0.02,0.46-0.05,0.5
				c-0.05,0.07-0.12,0.15-0.32,0.19l-3.06,0.65c-0.38,0.08-0.64,0.45-0.58,0.84l1.95,12.48c0.05,0.25,0.02,0.37,0,0.4
				c-0.01,0.02-0.08,0.06-0.23,0.09l-3.4,0.63C116.88,97.82,116.83,97.83,116.78,97.83z M97.84,97.08c-0.28,0-0.5-0.07-0.7-0.22
				c-0.3-0.22-0.49-0.59-0.59-1.11l-4.09-19.56c-0.11-0.52-0.07-0.91,0.13-1.22c0.2-0.3,0.49-0.48,0.94-0.57l12.21-2.34
				c0.12-0.02,0.24-0.03,0.35-0.03c0.27,0,0.5,0.07,0.7,0.22c0.29,0.22,0.47,0.58,0.55,1.1l3.34,19.62
				c0.08,0.52,0.02,0.95-0.17,1.27c-0.11,0.18-0.32,0.43-0.9,0.54l-11.43,2.27C98.07,97.06,97.95,97.08,97.84,97.08z M102.96,77.28
				c-0.05,0-0.1,0.01-0.15,0.01l-4.74,0.96c-0.4,0.08-0.66,0.47-0.58,0.87l2.43,12.16c0.07,0.35,0.38,0.59,0.72,0.59
				c0.05,0,0.09,0,0.14-0.01l4.58-0.89c0.4-0.08,0.66-0.46,0.59-0.86l-2.27-12.23c-0.04-0.19-0.15-0.37-0.31-0.48
				C103.26,77.32,103.11,77.28,102.96,77.28z"/>
		</g>
		<g>
			<path class="st0" d="M140.4,96.07c-0.11,0-0.18-0.03-0.25-0.11l-1.81-1.74c-0.13-0.13-0.2-0.26-0.21-0.44
				c0-0.05-0.01-0.12,0.13-0.23c0.92-0.7,1.79-1.53,2.58-2.46c0.79-0.93,1.47-1.89,2.02-2.85c0.56-0.98,0.97-1.97,1.23-2.94
				c0.27-1.02,0.32-1.96,0.15-2.79c-0.23-1.14,0.18-1.31,0.36-1.38l3.29-1.38c0.11-0.05,0.2-0.07,0.28-0.07
				c0.07,0,0.12,0.02,0.18,0.05c0.14,0.09,0.25,0.29,0.3,0.6c0.23,1.14,0.26,2.32,0.08,3.54c-0.03,0.2,0.03,0.41,0.16,0.57
				c0.13,0.16,0.32,0.26,0.53,0.27c0.59,0.04,1.17,0.06,1.74,0.06c2.45,0,4.88-0.35,7.22-1.05c0.16,0.18,0.23,0.3,0.24,0.45
				l0.32,3.6c0.01,0.12,0.01,0.3-0.53,0.43c-1.52,0.37-3.15,0.56-4.85,0.56c-1.77,0-3.55-0.26-5.36-0.77
				c-0.07-0.02-0.13-0.03-0.2-0.03c-0.28,0-0.54,0.16-0.67,0.42c-0.67,1.37-1.55,2.71-2.62,3.98c-1.07,1.27-2.33,2.45-3.74,3.49
				c-0.19,0.15-0.35,0.22-0.53,0.23L140.4,96.07z M135.24,82.9c-0.1,0-0.18-0.02-0.25-0.08c0,0,0,0,0,0c0.01,0-0.05-0.1-0.06-0.39
				c-0.04-0.79-0.12-1.59-0.24-2.37c-0.12-0.77-0.25-1.55-0.4-2.33c-0.04-0.23-0.19-0.42-0.39-0.52c-0.11-0.05-0.22-0.08-0.34-0.08
				c-0.11,0-0.22,0.02-0.32,0.07l-5.56,2.62c-0.15,0.07-0.22,0.08-0.25,0.08c-0.07,0-0.19-0.14-0.3-0.36l-1.22-2.65
				c-0.08-0.16-0.07-0.24-0.05-0.3c0.01-0.03,0.03-0.1,0.19-0.18l6.48-2.75c0.35-0.15,0.53-0.54,0.41-0.91
				c-0.18-0.55-0.36-1.07-0.54-1.56l-0.53-1.45c-0.07-0.19-0.22-0.34-0.4-0.43c-0.09-0.04-0.19-0.06-0.29-0.06
				c-0.1,0-0.2,0.02-0.29,0.06l-7.23,3.11c-0.02,0.01-0.04,0.02-0.06,0.02c-0.05,0-0.1-0.05-0.15-0.17l-1.34-3.2
				c-0.07-0.16-0.06-0.23-0.06-0.23l10.65-4.46c0.22-0.09,0.43-0.14,0.63-0.14c0.15,0,0.3,0.03,0.45,0.08
				c0.31,0.11,0.58,0.44,0.8,0.98l0.3,0.71c0.25,0.58,0.47,1.18,0.69,1.78c0.22,0.61,0.44,1.24,0.65,1.87
				c0.07,0.2,0.21,0.35,0.4,0.44c0.1,0.04,0.2,0.07,0.31,0.07c0.1,0,0.2-0.02,0.29-0.06l2.12-0.89c0.18-0.08,0.33-0.22,0.4-0.41
				c0.07-0.19,0.07-0.39-0.01-0.57l-2.86-6.46c-0.09-0.21-0.09-0.33-0.08-0.36c0-0.01,0.05-0.06,0.18-0.12l3.48-1.46
				c0.12-0.05,0.18-0.05,0.21-0.05c0.06,0,0.15,0.16,0.21,0.31l6.37,16.3c0.1,0.23,0.1,0.35,0.09,0.39
				c-0.01,0.02-0.06,0.08-0.21,0.14l-2.7,1.13c-0.12,0.05-0.18,0.06-0.21,0.06c-0.1,0-0.22-0.26-0.24-0.32l-2.04-4.6
				c-0.12-0.28-0.39-0.44-0.68-0.44c-0.1,0-0.19,0.02-0.29,0.06l-2.93,1.23c-0.32,0.14-0.51,0.48-0.44,0.83
				c0.24,1.24,0.44,2.5,0.58,3.73c0.14,1.22,0.22,2.47,0.24,3.69c0,0.21-0.04,0.38-0.11,0.46c-0.03,0.03-0.09,0.1-0.3,0.1
				L135.24,82.9z M151.13,76.86c-0.1,0-0.21-0.24-0.24-0.32l-7.51-17.92c-0.1-0.23-0.09-0.35-0.08-0.38c0-0.01,0.05-0.06,0.18-0.12
				l3.48-1.46c0.12-0.05,0.18-0.05,0.21-0.05c0.06,0,0.15,0.16,0.21,0.31l6.79,18.21c0.1,0.24,0.1,0.36,0.09,0.4
				c-0.01,0.02-0.06,0.08-0.21,0.14l-2.7,1.13C151.23,76.86,151.16,76.86,151.13,76.86z"/>
		</g>
	</g>
	<path class="st0" d="M117.93,26.48l29.48-14.77c2.38-1.19,3.29-4.23,1.81-6.44c-0.02-0.03-0.05-0.07-0.07-0.1
		c-3.17-4.64-9.36-6.43-14.52-4.21c-3.83,1.65-6.31,5.03-7,8.79c-2.02-0.49-6.22,0.52-8.21,2.55c-4.29,4.38-4.5,12.55-3.51,13.77
		C116.39,26.66,117.24,26.82,117.93,26.48z"/>
	<path class="st0" d="M119.09,33.39l27.75,6.3c2.24,0.32,4.34-1.36,4.39-3.62c0-0.04,0-0.07,0-0.11c0.04-4.78-3.41-9.03-8.09-9.98
		c-3.48-0.71-6.84,0.45-9.15,2.74c-1.17-1.32-3.36-2.74-5.76-2.43c-4.58,0.59-10.44,4.5-10.35,5.83
		C117.93,32.77,118.44,33.29,119.09,33.39z"/>
	<g>
		<path class="st0" d="M53.19,39.16c0.44,0.24,0.96,0.44,1.56,0.58c0.6,0.14,1.25,0.21,1.97,0.22c0.69,0.01,1.34-0.05,1.96-0.17
			c0.61-0.13,1.13-0.3,1.56-0.53c0.45-0.24,0.81-0.53,1.07-0.88c0.26-0.34,0.4-0.72,0.41-1.15c0.01-0.42-0.11-0.81-0.36-1.16
			c-0.25-0.35-0.59-0.64-1.02-0.89c-0.43-0.24-0.95-0.43-1.56-0.58c-0.61-0.14-1.26-0.21-1.95-0.22c-1.47-0.02-2.66,0.22-3.59,0.71
			c-0.92,0.49-1.39,1.16-1.41,2.01c-0.01,0.42,0.11,0.81,0.35,1.17C52.41,38.63,52.75,38.92,53.19,39.16z"/>
		<path class="st0" d="M64.97,64.88c-13.79,0-27.43-1.91-34.74-4.87c-1.92-0.78-3.35-2.36-3.93-4.35c-0.58-1.98-0.22-4.09,0.99-5.77
			c7.93-11.09,30.24-29.83,48.55-35.15c6.4-1.86,11.7-2.76,16.21-2.76c13.65,0,18.12,8.9,20.91,18.51c2.3,7.9,3.19,13.78,0.56,18.67
			c-2.78,5.19-9.42,9.07-21.51,12.58C85.03,63.76,75.43,64.88,64.97,64.88C64.97,64.88,64.97,64.88,64.97,64.88z M53.49,58.05
			c-0.01,0.42,0.11,0.75,0.33,0.99c0.24,0.24,0.59,0.37,1.04,0.38c0,0,4.31,0.06,4.32,0.06c0.85,0,1.34-0.46,1.41-1.31L60.81,53
			l8.9-0.04c0.42-0.02,0.75-0.14,1-0.36c0.26-0.23,0.4-0.56,0.41-0.97l0.02-3.37c0.01-0.41-0.12-0.74-0.37-0.99
			c-0.25-0.25-0.59-0.37-1.01-0.38L43.07,46.6c-0.44,0-0.76,0.12-1.01,0.35c-0.26,0.24-0.39,0.57-0.4,0.98l-0.02,3.76
			c-0.01,0.4,0.11,0.74,0.36,1c0.23,0.25,0.55,0.37,0.93,0.37l10.57-0.04L53.49,58.05z M101.84,27.28c-0.08,0-0.17,0.01-0.26,0.02
			l-4.87,0.52c-0.43,0.05-0.75,0.21-0.96,0.47c-0.2,0.26-0.28,0.61-0.22,1.03l3.53,25.82c0.1,0.76,0.56,1.19,1.29,1.19
			c0.08,0,0.17-0.01,0.26-0.02l4-0.42c0.46-0.05,0.79-0.22,1-0.48c0.2-0.26,0.27-0.6,0.22-1.02l-2.73-25.9
			C103.03,27.71,102.58,27.28,101.84,27.28z M85.6,35.12c0.43,0,0.79,0.31,0.84,0.71l0.16,1.42c0.05,0.43-0.28,0.82-0.73,0.88
			l-7.1,0.87c-0.85,0.1-1.52,0.42-1.99,0.95c-0.48,0.54-0.67,1.29-0.55,2.22l1.49,10.69c0.21,1.61,1.17,2.46,2.8,2.46
			c0.15,0,0.31-0.01,0.48-0.02c1.25-0.12,2.59-0.3,3.97-0.52c1.41-0.23,2.81-0.49,4.16-0.78c1.35-0.29,2.68-0.61,3.95-0.96
			c1.26-0.34,2.38-0.71,3.34-1.1c0.75-0.3,1.03-0.91,0.81-1.71l-1.16-3.54c-0.16-0.55-0.56-0.86-1.12-0.86
			c-0.17,0-0.37,0.03-0.58,0.09c-1.66,0.49-3.41,0.91-5.19,1.25c-1.45,0.28-2.89,0.5-4.27,0.65c0,0-0.01,0-0.01,0
			c-0.4,0-0.68-0.24-0.72-0.56l-0.27-2.09c-0.04-0.34,0.21-0.65,0.57-0.7l7.11-0.93c0.95-0.14,1.65-0.48,2.07-1.03
			c0.42-0.54,0.59-1.26,0.5-2.13l-0.98-9.21c-0.09-0.93-0.45-1.62-1.07-2.03c-0.48-0.32-1.06-0.49-1.7-0.49
			c-0.16,0-0.32,0.01-0.48,0.03l-13.01,1.45c-0.48,0.06-0.85,0.25-1.11,0.56c-0.26,0.32-0.37,0.72-0.3,1.19l0.36,2.82
			c0.06,0.47,0.26,0.83,0.59,1.08c0.27,0.2,0.59,0.3,0.96,0.3c0.08,0,0.17-0.01,0.26-0.02l7.83-0.92L85.6,35.12z M57.23,28.04
			c-1.74,0-3.32,0.23-4.69,0.68c-1.45,0.48-2.7,1.15-3.71,1.98c-1.02,0.84-1.81,1.83-2.35,2.94c-0.55,1.12-0.83,2.31-0.85,3.54
			c-0.02,1.24,0.23,2.41,0.74,3.48c0.51,1.07,1.28,2.02,2.27,2.83c0.99,0.78,2.22,1.42,3.65,1.88c1.42,0.46,3.08,0.71,4.94,0.73
			l0.33,0c1.69,0,3.24-0.2,4.61-0.59c1.46-0.42,2.71-1.02,3.73-1.79c1.02-0.77,1.81-1.7,2.36-2.75c0.55-1.06,0.83-2.22,0.85-3.45
			c0.02-1.24-0.23-2.43-0.74-3.56c-0.51-1.13-1.27-2.14-2.26-3.01c-0.98-0.86-2.22-1.57-3.66-2.09c-1.44-0.52-3.1-0.8-4.93-0.83
			L57.23,28.04z M81.21,15.07c-0.38,0-0.83,0.08-1.16,0.14l-0.23,0.04c-1.19,0.19-1.22,0.4-1.24,0.54c-0.02,0.13,0.08,0.29,0.2,0.34
			c4.65,2.2,7.74,5.81,8.47,9.91c0.06,0.33,0.48,0.33,0.7,0.33c0.43,0,2.37-0.17,2.66-0.52c0.06-0.07,0.09-0.18,0.08-0.27
			c-0.77-4.3-4.02-8.1-8.92-10.41C81.62,15.1,81.44,15.07,81.21,15.07z M90.65,13.33c-0.36,0-0.74,0.07-1.05,0.13l-0.23,0.04
			c-0.44,0.08-1.17,0.26-1.23,0.6c-0.02,0.12,0.07,0.29,0.18,0.35c4.99,2.81,8.13,4.92,9.53,10.58c0.09,0.38,0.63,0.38,0.83,0.38
			c0.62,0,2.26-0.25,2.53-0.59c0.06-0.07,0.09-0.2,0.07-0.29c-1.47-5.94-4.74-8.14-9.94-11.06C91.17,13.38,90.94,13.33,90.65,13.33z
			"/>
	</g>
</g>
</svg>
