<?xml version="1.0" encoding="utf-8"?>
<!-- Generator: Adobe Illustrator 27.4.0, SVG Export Plug-In . SVG Version: 6.00 Build 0)  -->
<svg version="1.1" id="Layer_1" xmlns="http://www.w3.org/2000/svg" xmlns:xlink="http://www.w3.org/1999/xlink" x="0px" y="0px"
	 viewBox="0 0 158 106" style="enable-background:new 0 0 158 106;" xml:space="preserve">
<style type="text/css">
	.st0{fill:#008250;}
</style>
<g>
	<g>
		<g>
			<path class="st0" d="M9,96c-1.1,0-2.2-0.3-3.3-0.7c-1.1-0.4-2.1-1-3-1.7c-0.8-0.7-1.5-1.4-1.9-2.2c-0.4-0.8-0.7-1.7-0.7-2.6
				C0,87.9,0.2,87,0.6,86c0.3-0.9,0.8-1.7,1.5-2.3s1.4-1.1,2.3-1.4C5.1,82,6,81.9,7,81.9h0.3c1.1,0,2.2,0.3,3.3,0.7s2.1,1,2.9,1.7
				c0.8,0.7,1.4,1.5,1.9,2.3c0.4,0.8,0.7,1.7,0.8,2.6s-0.1,1.8-0.4,2.7c-0.4,0.9-0.9,1.7-1.5,2.4c-0.7,0.7-1.4,1.2-2.3,1.5
				c-0.8,0.3-1.6,0.4-2.5,0.4C9.3,96,9.2,96,9,96z M8.2,85.3c-0.5,0-0.9,0.1-1.4,0.2c-1,0.4-1.7,1.1-2,2c-0.4,1-0.3,2,0.2,2.9
				s1.3,1.5,2.4,2c0.6,0.2,1.2,0.3,1.8,0.3l0,0c0.4,0,0.9-0.1,1.3-0.2c1-0.3,1.7-1,2.1-2.1c0.4-1,0.3-1.9-0.2-2.9
				c-0.5-0.9-1.3-1.6-2.4-2C9.4,85.4,8.8,85.3,8.2,85.3z M23,83.9c-0.1,0-0.1,0-0.2,0L0.2,75.9C0,75.8,0,75.8,0,75.8s0-0.1,0-0.4
				l1.1-2.8c0-0.1,0.1-0.2,0.2-0.3h0.1c0.1,0,0.1,0,0.1,0l8.4,3.2c0.1,0,0.2,0,0.3,0c0.1,0,0.2,0,0.3-0.1c0.2-0.1,0.3-0.2,0.4-0.4
				l1-2.6c0.1-0.4,0-0.8-0.4-0.9l-5-1.9C6,69.4,5.7,69.2,5.6,69c-0.1-0.1-0.1-0.5,0.2-1.3l3-8.1c0-0.1,0.1-0.3,0.2-0.3
				c0,0,0.1,0,0.2,0l4.2,1.6c0.2,0.1,0.3,0.1,0.1,0.5l-2,5.2c-0.1,0.4,0,0.8,0.4,1c2.6,1,5,1.9,7.2,2.8s4.1,1.6,5.8,2.2
				c0.1,0,0.2,0.1,0.3,0.2c0,0,0,0.2-0.1,0.5l-0.8,2c-0.1,0.4-0.3,0.4-0.4,0.4c-0.1,0-0.2,0-0.3-0.1c-1.1-0.3-2.2-0.7-3.6-1.2
				c-0.8-0.3-1.6-0.6-2.5-0.8c-0.1,0-0.1,0-0.2,0c-0.3,0-0.6,0.2-0.7,0.5l-1.1,2.7c-0.1,0.2-0.1,0.4,0,0.6c0.1,0.2,0.2,0.3,0.4,0.4
				l8.4,3.1c0.1,0.1,0.2,0.1,0.2,0.1c0,0.1,0,0.2,0,0.4l-0.9,2.4c0,0.1-0.1,0.2-0.2,0.3L23,83.9z"/>
		</g>
		<g>
			<path class="st0" d="M35.1,101.3c-0.6-0.1-1-0.3-1.2-0.6c-0.2-0.4-0.3-0.9-0.2-1.6l1.2-8.3c0-0.2,0.1-0.3,0.1-0.3
				c0.1,0,0.1,0,0.1,0h0.1l3.8,0.6c0.1,0,0.2,0.1,0.2,0.1s0,0.1,0,0.4l-1,5.4c0,0.2,0,0.4,0.1,0.5c0.1,0.2,0.3,0.3,0.5,0.3l12.3,2.2
				c0.2,0,0.2,0.1,0.2,0.1l0,0c0,0,0,0.1,0,0.2l-0.5,2.9c-0.1,0.3-0.1,0.4-0.1,0.4l0,0C50.7,103.7,35.1,101.3,35.1,101.3z
				 M52.2,93.3l-3.6-0.6c-0.2,0-0.3,0-0.2-0.5l3.3-21c0.1-0.4,0.1-0.4,0.2-0.4l4.3,0.7c0.2,0,0.2,0.1,0.2,0.1s0,0.1,0,0.4l-1.2,6.8
				c0,0.2,0,0.4,0.1,0.6c0.1,0.2,0.3,0.3,0.5,0.3l3.2,0.5c0.2,0,0.3,0.1,0.3,0.2c0,0,0.1,0.2,0.1,0.5L58.9,84
				c-0.1,0.3-0.2,0.4-0.2,0.5c-0.1,0-0.1,0.1-0.2,0.1L55,83.9h-0.1c-0.3,0-0.7,0.2-0.7,0.6L52.6,93C52.5,93.4,52.4,93.4,52.2,93.3
				C52.2,93.3,52.2,93.3,52.2,93.3z M44.3,87.4c0,0-0.2,0-0.5-0.2c-1.8-1.4-3.5-3.3-4.8-5.6c-0.1-0.2-0.3-0.3-0.6-0.4c0,0,0,0-0.1,0
				c-0.2,0-0.4,0.1-0.5,0.2c-2,2.1-4.3,3.8-7.1,5c-0.2,0.1-0.3,0.1-0.4,0.1c-0.2,0-0.3-0.1-0.3-0.2l-1.5-2.4c0-0.1,0-0.2,0-0.3
				c0,0,0-0.1,0.2-0.2c1.3-0.7,2.5-1.5,3.5-2.5c1-1,2-2,2.8-3.2c0.8-1.1,1.5-2.4,2-3.7s0.9-2.6,1.2-3.9c0.1-0.4,0.2-0.7,0.4-0.8
				c0.1-0.1,0.2-0.1,0.3-0.1l3.8,0.6c0.3,0,0.4,0.2,0.4,0.3c0.1,0.2,0.1,0.5,0,0.8c-0.5,2.1-1.2,4.2-2.3,6.1c-0.1,0.2-0.1,0.5,0,0.8
				c0.8,1.3,1.8,2.5,2.9,3.4c1,1,2.1,1.8,3.1,2.6c0.1,0.1,0.1,0.1,0.1,0.2c0,0.2,0,0.3-0.1,0.4L44.3,87.4
				C44.4,87.4,44.3,87.4,44.3,87.4z"/>
		</g>
		<g>
			<path class="st0" d="M67.6,106c-0.3,0-0.5-0.1-0.6-0.2c-0.2-0.2-0.3-0.4-0.3-0.8l-0.2-5.7c0-0.4,0.1-0.6,0.2-0.7
				c0.2-0.2,0.4-0.3,0.7-0.3l12.4-0.6c0.4,0,0.7-0.3,0.7-0.7v-1.2c0-0.2-0.1-0.4-0.2-0.5c-0.1-0.1-0.3-0.2-0.5-0.2l-13.6,0.4
				c-0.1,0-0.2,0-0.2-0.1c0,0-0.1-0.1-0.1-0.3v-2.3c0-0.4,0.1-0.4,0.3-0.4l6.6-0.2c0.2,0,0.4-0.1,0.6-0.3c0.1-0.2,0.2-0.4,0.1-0.6
				c0-0.1,0-0.2,0-0.3l-0.1-1.8c0-0.4-0.3-0.7-0.7-0.7l-9,0.3h-0.2c-0.1-0.1-0.1-0.2-0.1-0.4v-2.8c0-0.1,0-0.3,0.1-0.3
				c0,0,0.1-0.1,0.2-0.1l24.1-0.4c0.2,0,0.2,0,0.2,0.1C88,85,88,85.1,88,85.2v2.3c0,0.1,0,0.3-0.1,0.3c-0.1,0.1-0.2,0.1-0.3,0.1
				l-9,0.3c-0.4,0-0.7,0.3-0.7,0.7v1.9c0,0.1,0,0.1,0,0.2c0,0.2,0,0.4,0.2,0.6c0.1,0.2,0.3,0.3,0.6,0.3l6-0.2c0.4,0,0.5,0.1,0.6,0.2
				c0.1,0.1,0.2,0.4,0.2,0.8l-0.1,6.2c0,0.3-0.1,0.6-0.3,0.8c-0.1,0.1-0.3,0.2-0.6,0.3l-12.3,0.4c-0.4,0-0.7,0.3-0.7,0.7v1.1
				c0,0.4,0.3,0.7,0.7,0.7h13.3c0.2,0,0.2,0,0.2,0.1c0.1,0.1,0.1,0.2,0.1,0.3v1.7c0,0.1,0,0.3-0.1,0.4c0,0-0.1,0.1-0.2,0.1L67.6,106
				L67.6,106z M66.9,82.2c-0.4,0-0.6-0.1-0.7-0.3c-0.2-0.2-0.3-0.5-0.3-0.9l-0.3-8c0-0.6,0.2-0.8,0.2-0.9c0.2-0.2,0.5-0.3,0.8-0.3
				c0,0,17.9-0.2,18-0.2c0.4,0,0.6,0.1,0.7,0.2c0.2,0.2,0.3,0.5,0.3,0.9l-0.1,7.9c0,0.4-0.1,0.7-0.3,0.9c-0.1,0.1-0.3,0.3-0.7,0.3
				L66.9,82.2L66.9,82.2L66.9,82.2z M70.9,75.1c-0.2,0-0.4,0.1-0.5,0.2c-0.1,0.1-0.2,0.3-0.2,0.5l0.1,2.2c0,0.4,0.3,0.7,0.7,0.7
				l9.6-0.1c0.4,0,0.7-0.3,0.7-0.7v-2.2c0-0.2-0.1-0.4-0.2-0.5c-0.1-0.1-0.3-0.2-0.5-0.2C80.4,75,70.9,75.1,70.9,75.1z"/>
		</g>
		<g>
			<path class="st0" d="M116,97c-0.1,0-0.2,0-0.2-0.4l-5-26.6c0-0.2,0-0.4,0-0.4s0.1,0,0.2-0.1l4.2-0.8h0.1c0.1,0,0.1,0,0.2,0.3
				l1.4,8.6c0,0.2,0.1,0.4,0.3,0.5c0.1,0.1,0.3,0.1,0.4,0.1h0.1l2.9-0.6h0.1c0.1,0,0.2,0,0.3,0.1c0,0,0.2,0.1,0.2,0.4l0.6,3.1
				c0.1,0.3,0,0.5,0,0.5c0,0.1-0.1,0.1-0.3,0.2l-3,0.6c-0.4,0.1-0.6,0.4-0.6,0.8l1.9,12.4c0,0.2,0,0.4,0,0.4s-0.1,0.1-0.2,0.1
				l-3.4,0.6C116.1,97,116,97,116,97z M97.2,96.3c-0.3,0-0.5-0.1-0.7-0.2c-0.3-0.2-0.5-0.6-0.6-1.1l-4.1-19.4
				c-0.1-0.5-0.1-0.9,0.1-1.2c0.2-0.3,0.5-0.5,0.9-0.6l12.1-2.3c0.1,0,0.2,0,0.3,0c0.3,0,0.5,0.1,0.7,0.2c0.3,0.2,0.5,0.6,0.5,1.1
				l3.3,19.5c0.1,0.5,0,0.9-0.2,1.3c-0.1,0.2-0.3,0.4-0.9,0.5L97.2,96.3C97.4,96.3,97.3,96.3,97.2,96.3z M102.3,76.7L102.3,76.7
				l-4.8,1c-0.4,0.1-0.7,0.5-0.6,0.9l2.4,12.1c0.1,0.3,0.4,0.6,0.7,0.6h0.1l4.6-0.9c0.4-0.1,0.7-0.5,0.6-0.9L103,77.3
				c0-0.2-0.1-0.4-0.3-0.5S102.4,76.7,102.3,76.7z"/>
		</g>
		<g>
			<path class="st0" d="M139.5,95.3c-0.1,0-0.2,0-0.2-0.1l-1.8-1.7c-0.1-0.1-0.2-0.3-0.2-0.4c0,0,0-0.1,0.1-0.2
				c0.9-0.7,1.8-1.5,2.6-2.4s1.5-1.9,2-2.8c0.6-1,1-2,1.2-2.9c0.3-1,0.3-1.9,0.1-2.8c-0.2-1.1,0.2-1.3,0.4-1.4l3.3-1.4
				c0.1,0,0.2-0.1,0.3-0.1c0.1,0,0.1,0,0.2,0c0.1,0.1,0.2,0.3,0.3,0.6c0.2,1.1,0.3,2.3,0.1,3.5c0,0.2,0,0.4,0.2,0.6
				c0.1,0.2,0.3,0.3,0.5,0.3c0.6,0,1.2,0.1,1.7,0.1c2.4,0,4.9-0.3,7.2-1c0.2,0.2,0.2,0.3,0.2,0.4l0.3,3.6c0,0.1,0,0.3-0.5,0.4
				c-1.5,0.4-3.1,0.6-4.8,0.6c-1.8,0-3.5-0.3-5.3-0.8c-0.1,0-0.1,0-0.2,0c-0.3,0-0.5,0.2-0.7,0.4c-0.7,1.4-1.5,2.7-2.6,4
				c-1.1,1.3-2.3,2.4-3.7,3.5C139.8,95.2,139.7,95.3,139.5,95.3L139.5,95.3z M134.3,82.3c-0.1,0-0.2,0-0.2-0.1l0,0
				c0,0,0-0.1-0.1-0.4c0-0.8-0.1-1.6-0.2-2.4s-0.2-1.5-0.4-2.3c0-0.2-0.2-0.4-0.4-0.5c-0.1,0-0.2-0.1-0.3-0.1s-0.2,0-0.3,0.1
				l-5.5,2.6c-0.1,0.1-0.2,0.1-0.2,0.1c-0.1,0-0.2-0.1-0.3-0.4l-1.2-2.6c-0.1-0.2-0.1-0.2,0-0.3c0,0,0-0.1,0.2-0.2l6.4-2.7
				c0.3-0.1,0.5-0.5,0.4-0.9c-0.2-0.5-0.4-1.1-0.5-1.6l-0.5-1.4c-0.1-0.2-0.2-0.3-0.4-0.4c-0.1,0-0.2-0.1-0.3-0.1s-0.2,0-0.3,0.1
				l-7.2,3.1c0,0,0,0-0.1,0c0,0-0.1,0-0.1-0.2l-1.3-3.2c-0.1-0.2-0.1-0.2-0.1-0.2l10.6-4.4c0.2-0.1,0.4-0.1,0.6-0.1
				c0.1,0,0.3,0,0.4,0.1c0.3,0.1,0.6,0.4,0.8,1l0.3,0.7c0.2,0.6,0.5,1.2,0.7,1.8c0.2,0.6,0.4,1.2,0.6,1.9c0.1,0.2,0.2,0.3,0.4,0.4
				c0.1,0,0.2,0.1,0.3,0.1s0.2,0,0.3-0.1l2.1-0.9c0.2-0.1,0.3-0.2,0.4-0.4c0.1-0.2,0.1-0.4,0-0.6l-2.8-6.4c-0.1-0.2-0.1-0.3-0.1-0.4
				c0,0,0-0.1,0.2-0.1l3.5-1.5c0.1,0,0.2,0,0.2,0c0.1,0,0.1,0.2,0.2,0.3l6.3,16.2c0.1,0.2,0.1,0.3,0.1,0.4c0,0-0.1,0.1-0.2,0.1
				l-2.7,1.1c-0.1,0-0.2,0.1-0.2,0.1c-0.1,0-0.2-0.3-0.2-0.3l-2-4.6c-0.1-0.3-0.4-0.4-0.7-0.4c-0.1,0-0.2,0-0.3,0.1l-2.9,1.2
				c-0.3,0.1-0.5,0.5-0.4,0.8c0.2,1.2,0.4,2.5,0.6,3.7c0.1,1.2,0.2,2.5,0.2,3.7c0,0.2,0,0.4-0.1,0.5c0,0-0.1,0.1-0.3,0.1L134.3,82.3
				z M150.1,76.3c-0.1,0-0.2-0.2-0.2-0.3l-7.5-17.8c-0.1-0.2-0.1-0.3-0.1-0.4c0,0,0-0.1,0.2-0.1l3.5-1.5c0.1,0,0.2,0,0.2,0
				c0.1,0,0.1,0.2,0.2,0.3l6.7,18.1c0.1,0.2,0.1,0.4,0.1,0.4s-0.1,0.1-0.2,0.1l-2.7,1.1C150.2,76.3,150.2,76.3,150.1,76.3z"/>
		</g>
	</g>
	<path class="st0" d="M117.1,26.3l29.3-14.7c2.4-1.2,3.3-4.2,1.8-6.4c0,0,0-0.1-0.1-0.1c-3.2-4.6-9.3-6.4-14.4-4.2
		c-3.8,1.6-6.3,5-7,8.7c-2-0.5-6.2,0.5-8.2,2.5c-4.3,4.4-4.5,12.5-3.5,13.7C115.6,26.5,116.4,26.6,117.1,26.3z"/>
	<path class="st0" d="M118.3,33.2l27.6,6.3c2.2,0.3,4.3-1.4,4.4-3.6v-0.1c0-4.8-3.4-9-8-9.9c-3.5-0.7-6.8,0.4-9.1,2.7
		c-1.2-1.3-3.3-2.7-5.7-2.4c-4.6,0.6-10.4,4.5-10.3,5.8C117.1,32.6,117.6,33.1,118.3,33.2z"/>
	<g>
		<path class="st0" d="M52.9,38.8c0.4,0.2,1,0.4,1.6,0.6c0.6,0.1,1.2,0.2,2,0.2c0.7,0,1.3,0,1.9-0.2c0.6-0.1,1.1-0.3,1.6-0.5
			c0.4-0.2,0.8-0.5,1.1-0.9c0.3-0.3,0.4-0.7,0.4-1.1c0-0.4-0.1-0.8-0.4-1.2c-0.2-0.3-0.6-0.6-1-0.9c-0.4-0.2-0.9-0.4-1.6-0.6
			c-0.6-0.1-1.3-0.2-1.9-0.2c-1.5,0-2.6,0.2-3.6,0.7c-0.9,0.5-1.4,1.2-1.4,2c0,0.4,0.1,0.8,0.3,1.2C52.1,38.3,52.4,38.6,52.9,38.8z"
			/>
		<path class="st0" d="M64.6,64.4c-13.7,0-27.3-1.9-34.5-4.8c-1.9-0.8-3.3-2.3-3.9-4.3c-0.6-2-0.2-4.1,1-5.7
			c7.9-11,30.1-29.6,48.3-34.8c6.4-1.8,11.6-2.7,16.1-2.7c13.6,0,18,8.8,20.8,18.4c2.3,7.9,3.2,13.7,0.6,18.6
			c-2.8,5.2-9.4,9-21.4,12.5C84.4,63.3,75,64.4,64.6,64.4L64.6,64.4z M53.2,57.6c0,0.4,0.1,0.7,0.3,1c0.2,0.2,0.6,0.4,1,0.4l4.3,0.1
			c0.8,0,1.3-0.5,1.4-1.3l0.2-5.1h8.8c0.4,0,0.7-0.1,1-0.4c0.3-0.2,0.4-0.6,0.4-1V48c0-0.4-0.1-0.7-0.4-1c-0.2-0.2-0.6-0.4-1-0.4
			l-26.5-0.3c-0.4,0-0.8,0.1-1,0.3c-0.3,0.2-0.4,0.6-0.4,1v3.7c0,0.4,0.1,0.7,0.4,1c0.2,0.2,0.5,0.4,0.9,0.4h10.5L53.2,57.6z
			 M101.1,27.1c-0.1,0-0.2,0-0.3,0L96,27.6c-0.4,0-0.7,0.2-1,0.5c-0.2,0.3-0.3,0.6-0.2,1l3.5,25.6c0.1,0.8,0.6,1.2,1.3,1.2
			c0.1,0,0.2,0,0.3,0l4-0.4c0.5,0,0.8-0.2,1-0.5c0.2-0.3,0.3-0.6,0.2-1l-2.7-25.6C102.3,27.5,101.9,27.1,101.1,27.1z M85,34.9
			c0.4,0,0.8,0.3,0.8,0.7L86,37c0,0.4-0.3,0.8-0.7,0.9l-7.1,0.9c-0.8,0.1-1.5,0.4-2,0.9s-0.7,1.3-0.5,2.2l1.5,10.6
			c0.2,1.6,1.2,2.4,2.8,2.4c0.1,0,0.3,0,0.5,0c1.2-0.1,2.6-0.3,3.9-0.5c1.4-0.2,2.8-0.5,4.1-0.8c1.3-0.3,2.7-0.6,3.9-1
			c1.3-0.3,2.4-0.7,3.3-1.1c0.7-0.3,1-0.9,0.8-1.7l-1.2-3.5c-0.2-0.5-0.6-0.9-1.1-0.9c-0.2,0-0.4,0-0.6,0.1
			c-1.7,0.5-3.4,0.9-5.2,1.2c-1.4,0.3-2.9,0.5-4.2,0.6l0,0c-0.4,0-0.7-0.2-0.7-0.6l-0.3-2.1c0-0.3,0.2-0.6,0.6-0.7l7.1-0.9
			c0.9-0.1,1.6-0.5,2.1-1c0.4-0.5,0.6-1.3,0.5-2.1l-1-9.2c-0.1-0.9-0.4-1.6-1.1-2c-0.5-0.3-1.1-0.5-1.7-0.5c-0.2,0-0.3,0-0.5,0
			l-12.9,1.4c-0.5,0.1-0.8,0.2-1.1,0.6c-0.3,0.3-0.4,0.7-0.3,1.2l0.4,2.8c0.1,0.5,0.3,0.8,0.6,1.1c0.3,0.2,0.6,0.3,1,0.3
			c0.1,0,0.2,0,0.3,0L85,34.9L85,34.9z M56.9,27.9c-1.7,0-3.3,0.2-4.7,0.7s-2.7,1.1-3.7,2c-1,0.8-1.8,1.8-2.3,2.9
			c-0.5,1.1-0.8,2.3-0.8,3.5c0,1.2,0.2,2.4,0.7,3.5c0.5,1.1,1.3,2,2.3,2.8s2.2,1.4,3.6,1.9c1.4,0.5,3.1,0.7,4.9,0.7h0.3
			c1.7,0,3.2-0.2,4.6-0.6c1.5-0.4,2.7-1,3.7-1.8s1.8-1.7,2.3-2.7c0.5-1.1,0.8-2.2,0.8-3.4s-0.2-2.4-0.7-3.5c-0.5-1.1-1.3-2.1-2.2-3
			c-1-0.9-2.2-1.6-3.6-2.1C60.7,28.3,59,28,57.2,28L56.9,27.9z M80.6,15c-0.4,0-0.8,0.1-1.2,0.1h-0.2c-1.2,0.2-1.2,0.4-1.2,0.5
			s0.1,0.3,0.2,0.3c4.6,2.2,7.7,5.8,8.4,9.9c0.1,0.3,0.5,0.3,0.7,0.3c0.4,0,2.4-0.2,2.6-0.5c0.1-0.1,0.1-0.2,0.1-0.3
			c-0.8-4.3-4-8.1-8.9-10.3C81,15,80.9,15,80.6,15z M90,13.2c-0.4,0-0.7,0.1-1,0.1h-0.2c-0.4,0.1-1.2,0.3-1.2,0.6
			c0,0.1,0.1,0.3,0.2,0.3c5,2.8,8.1,4.9,9.5,10.5c0.1,0.4,0.6,0.4,0.8,0.4c0.6,0,2.2-0.2,2.5-0.6c0.1-0.1,0.1-0.2,0.1-0.3
			c-1.5-5.9-4.7-8.1-9.9-11C90.5,13.3,90.3,13.2,90,13.2z"/>
	</g>
</g>
</svg>
