<?xml version="1.0" encoding="utf-8"?>
<!-- Generator: Adobe Illustrator 27.4.0, SVG Export Plug-In . SVG Version: 6.00 Build 0)  -->
<svg version="1.1" id="Layer_1" xmlns="http://www.w3.org/2000/svg" xmlns:xlink="http://www.w3.org/1999/xlink" x="0px" y="0px"
	 viewBox="0 0 28 34" style="enable-background:new 0 0 28 34;" xml:space="preserve">
<style type="text/css">
	.st0{fill:#969696;}
</style>
<path class="st0" d="M17.5,20.4c5.4-1.9,8.3-7.9,6.4-13.4S16-1.3,10.6,0.6S2.3,8.5,4.2,14c1,3,3.4,5.4,6.4,6.4C4.4,22,0,27.6,0,34
	h1.6c0-6.9,5.6-12.5,12.4-12.5S26.4,27.1,26.4,34H28C28,27.6,23.7,22,17.5,20.4z M5.1,10.5c0-4.9,4-8.9,8.9-8.9s8.9,4,8.9,8.9
	s-4,8.9-8.9,8.9S5.1,15.4,5.1,10.5z"/>
</svg>
