<svg id="Layer_1" data-name="Layer 1" xmlns="http://www.w3.org/2000/svg" viewBox="0 0 46 40"><defs><style>.cls-1{fill:#969696;}</style></defs><path class="cls-1" d="M36.59,2.85a8.08,8.08,0,0,0-8,7.23H5.11L2.83,2.48l-1.52.46L8.88,28.18a5.24,5.24,0,1,0,6.87,5,5.17,5.17,0,0,0-1.5-3.65H27.11a5.25,5.25,0,1,0,5.36-1.32l2.66-9.27a7.77,7.77,0,0,0,1.46.15,8.1,8.1,0,0,0,0-16.2ZM10.5,36.8a3.66,3.66,0,1,1,3.66-3.66A3.66,3.66,0,0,1,10.5,36.8Zm24-3.66a3.66,3.66,0,1,1-3.66-3.65A3.66,3.66,0,0,1,34.52,33.14ZM30.9,27.89H10.46L5.59,11.67h23a8.09,8.09,0,0,0,5,6.79Zm5.69-10.43a5.69,5.69,0,0,1-1-.11A6.15,6.15,0,0,1,34,16.93a6.53,6.53,0,0,1-3.88-5.26c0-.24-.07-.47-.07-.72a6.25,6.25,0,0,1,.09-.87,6.5,6.5,0,1,1,6.42,7.38Z"/></svg>