<?xml version="1.0" encoding="utf-8"?>
<!-- Generator: Adobe Illustrator 27.4.0, SVG Export Plug-In . SVG Version: 6.00 Build 0)  -->
<svg version="1.1" id="Layer_1" xmlns="http://www.w3.org/2000/svg" xmlns:xlink="http://www.w3.org/1999/xlink" x="0px" y="0px"
	 viewBox="0 0 44 36" style="enable-background:new 0 0 44 36;" xml:space="preserve">
<style type="text/css">
	.st0{fill:#969696;}
</style>
<path class="st0" d="M35.8,0c-4.2,0-7.7,3.2-8.1,7.3H3.7L1.5,0.1L0,0.6l7.6,25c-2.8,0.9-4.3,3.9-3.4,6.7c0.9,2.8,3.9,4.3,6.7,3.4
	c2.2-0.7,3.7-2.7,3.7-5c0-1.4-0.5-2.7-1.5-3.7h13.1c-2.1,2.1-2,5.5,0.1,7.5s5.5,2,7.6-0.1c2.1-2.1,2-5.5-0.1-7.5
	c-0.6-0.6-1.3-1-2.1-1.3l2.7-9.4c0.5,0.1,1,0.1,1.5,0.2c4.6,0,8.2-3.7,8.2-8.2C44,3.7,40.3,0,35.8,0L35.8,0z M9.2,34.3
	c-2.1,0-3.7-1.7-3.7-3.7s1.7-3.7,3.7-3.7s3.7,1.7,3.7,3.7l0,0C12.9,32.7,11.3,34.3,9.2,34.3z M33.6,30.6c0,2-1.7,3.7-3.7,3.7
	s-3.7-1.6-3.7-3.7c0-2,1.7-3.7,3.7-3.7c0,0,0,0,0,0C32,26.9,33.6,28.6,33.6,30.6C33.7,30.6,33.7,30.6,33.6,30.6L33.6,30.6z M30,25.3
	H9.2l-5-16.4h23.4c0.3,3.1,2.2,5.7,5.1,6.9L30,25.3z M35.8,14.8c-0.3,0-0.7,0-1-0.1c-0.6-0.1-1.1-0.2-1.6-0.4
	c-2.2-0.9-3.7-3-3.9-5.3c0-0.2-0.1-0.5-0.1-0.7c0-0.3,0-0.6,0.1-0.9c0.5-3.6,3.8-6.1,7.4-5.6c3.6,0.5,6.2,3.8,5.7,7.4
	C41.9,12.4,39,14.8,35.8,14.8L35.8,14.8z"/>
</svg>
