<?xml version="1.0" encoding="utf-8"?>
<!-- Generator: Adobe Illustrator 25.3.0, SVG Export Plug-In . SVG Version: 6.00 Build 0)  -->
<svg version="1.1" id="Layer_1" xmlns="http://www.w3.org/2000/svg" xmlns:xlink="http://www.w3.org/1999/xlink" x="0px" y="0px"
	 viewBox="0 0 52.98 64" style="enable-background:new 0 0 52.98 64;" xml:space="preserve">
<style type="text/css">
	.st0{fill:#FFFFFF;}
</style>
<path class="st0" d="M33.06,38.37c7.67-2.72,13.19-10.02,13.19-18.61C46.25,8.86,37.38,0,26.49,0S6.73,8.86,6.73,19.76
	c0,8.59,5.52,15.89,13.19,18.61C8.49,41.3,0,51.67,0,64h2.97c0-12.97,10.55-23.52,23.52-23.52S50.01,51.03,50.01,64h2.97
	C52.98,51.67,44.49,41.3,33.06,38.37z M9.7,19.76c0-9.26,7.53-16.79,16.79-16.79s16.79,7.53,16.79,16.79s-7.53,16.79-16.79,16.79
	S9.7,29.02,9.7,19.76z"/>
</svg>
