<?xml version="1.0" encoding="utf-8"?>
<!-- Generator: Adobe Illustrator 27.4.0, SVG Export Plug-In . SVG Version: 6.00 Build 0)  -->
<svg version="1.1" id="Layer_1" xmlns="http://www.w3.org/2000/svg" xmlns:xlink="http://www.w3.org/1999/xlink" x="0px" y="0px"
	 viewBox="0 0 52 64" style="enable-background:new 0 0 52 64;" xml:space="preserve">
<style type="text/css">
	.st0{fill:#FFFFFF;}
</style>
<path class="st0" d="M32.4,38.4c7.5-2.7,12.9-10,12.9-18.6C45.4,8.9,36.7,0,26,0S6.6,8.9,6.6,19.8c0,8.6,5.4,15.9,12.9,18.6
	C8.3,41.3,0,51.7,0,64h2.9c0-13,10.4-23.5,23.1-23.5S49.1,51,49.1,64H52C52,51.7,43.7,41.3,32.4,38.4z M9.5,19.8
	C9.5,10.5,16.9,3,26,3s16.5,7.5,16.5,16.8S35.1,36.6,26,36.6S9.5,29,9.5,19.8z"/>
</svg>
