<?xml version="1.0" encoding="utf-8"?>
<!-- Generator: Adobe Illustrator 25.3.0, SVG Export Plug-In . SVG Version: 6.00 Build 0)  -->
<svg version="1.1" id="Layer_1" xmlns="http://www.w3.org/2000/svg" xmlns:xlink="http://www.w3.org/1999/xlink" x="0px" y="0px"
	 viewBox="0 0 77.31 64" style="enable-background:new 0 0 77.31 64;" xml:space="preserve">
<style type="text/css">
	.st0{fill:#FFFFFF;}
</style>
<path class="st0" d="M62.88,0.65c-7.43,0-13.49,5.66-14.28,12.88H6.78L2.71,0L0,0.81l13.49,44.98c-3.74,1.23-6.47,4.71-6.47,8.85
	c0,5.16,4.2,9.36,9.36,9.36s9.36-4.2,9.36-9.36c0-2.54-1.02-4.83-2.67-6.52h22.91c-1.64,1.69-2.67,3.98-2.67,6.52
	c0,5.16,4.2,9.36,9.36,9.36s9.36-4.2,9.36-9.36c0-4.15-2.74-7.64-6.48-8.86l4.72-16.53c0.85,0.16,1.72,0.26,2.61,0.26
	c7.96,0,14.43-6.47,14.43-14.43S70.83,0.65,62.88,0.65z M16.38,61.16c-3.6,0-6.52-2.93-6.52-6.52c0-3.6,2.92-6.52,6.52-6.52
	s6.52,2.93,6.52,6.52C22.9,58.24,19.98,61.16,16.38,61.16z M59.19,54.64c0,3.6-2.92,6.52-6.52,6.52s-6.52-2.93-6.52-6.52
	c0-3.6,2.92-6.52,6.52-6.52S59.19,51.05,59.19,54.64z M52.74,45.29h-0.07H16.38H16.3L7.63,16.37h40.95
	c0.49,5.5,4.03,10.13,8.97,12.1L52.74,45.29z M62.88,26.69c-0.63,0-1.23-0.09-1.83-0.18c-0.95-0.15-1.87-0.39-2.73-0.75
	c-3.76-1.61-6.44-5.16-6.91-9.38c-0.05-0.43-0.13-0.84-0.13-1.28c0-0.53,0.09-1.04,0.16-1.55C52.2,7.88,57.01,3.49,62.88,3.49
	c6.4,0,11.6,5.2,11.6,11.6S69.27,26.69,62.88,26.69z"/>
</svg>
