<?xml version="1.0" encoding="utf-8"?>
<!-- Generator: Adobe Illustrator 27.4.0, SVG Export Plug-In . SVG Version: 6.00 Build 0)  -->
<svg version="1.1" id="Layer_1" xmlns="http://www.w3.org/2000/svg" xmlns:xlink="http://www.w3.org/1999/xlink" x="0px" y="0px"
	 viewBox="0 0 78 64" style="enable-background:new 0 0 78 64;" xml:space="preserve">
<style type="text/css">
	.st0{fill:#FFFFFF;}
</style>
<path class="st0" d="M63.4,0.6c-7.5,0-13.6,5.7-14.4,12.9H6.8L2.7,0L0,0.8l13.6,45c-3.8,1.2-6.5,4.7-6.5,8.8c0,5.2,4.2,9.4,9.4,9.4
	s9.4-4.2,9.4-9.4c0-2.5-1-4.8-2.7-6.5h23.1c-1.7,1.7-2.7,4-2.7,6.5c0,5.2,4.2,9.4,9.4,9.4s9.4-4.2,9.4-9.4c0-4.2-2.8-7.6-6.5-8.9
	l4.8-16.5c0.9,0.2,1.7,0.3,2.6,0.3c8,0,14.6-6.5,14.6-14.4S71.5,0.6,63.4,0.6z M16.5,61.2c-3.6,0-6.6-2.9-6.6-6.5
	c0-3.6,2.9-6.5,6.6-6.5s6.6,2.9,6.6,6.5C23.1,58.2,20.2,61.2,16.5,61.2z M59.7,54.6c0,3.6-2.9,6.5-6.6,6.5c-3.6,0-6.6-2.9-6.6-6.5
	c0-3.6,2.9-6.5,6.6-6.5C56.8,48.1,59.7,51,59.7,54.6z M53.2,45.3L53.2,45.3H16.5h-0.1L7.7,16.4H49c0.5,5.5,4.1,10.1,9.1,12.1
	L53.2,45.3z M63.4,26.7c-0.6,0-1.2-0.1-1.8-0.2c-1-0.1-1.9-0.4-2.8-0.8c-3.8-1.6-6.5-5.2-7-9.4c-0.1-0.4-0.1-0.8-0.1-1.3
	c0-0.5,0.1-1,0.2-1.6c0.8-5.7,5.6-10.1,11.5-10.1c6.5,0,11.7,5.2,11.7,11.6S69.9,26.7,63.4,26.7z"/>
</svg>
