<?xml version="1.0" encoding="utf-8"?>
<!-- Generator: Adobe Illustrator 27.4.0, SVG Export Plug-In . SVG Version: 6.00 Build 0)  -->
<svg version="1.1" id="Layer_1" xmlns="http://www.w3.org/2000/svg" xmlns:xlink="http://www.w3.org/1999/xlink" x="0px" y="0px"
	 viewBox="0 0 54 54" style="enable-background:new 0 0 54 54;" xml:space="preserve">
<style type="text/css">
	.st0{fill:#FDEAD8;}
</style>
<g>
	<path class="st0" d="M27,35.9c-0.3,0-0.6-0.1-0.8-0.3L14.9,24.3c-0.5-0.5-0.5-1.2,0-1.7c0.5-0.5,1.2-0.5,1.7,0L27,33l10.4-10.4
		c0.5-0.5,1.2-0.5,1.7,0c0.5,0.5,0.5,1.2,0,1.7L27.8,35.5C27.6,35.8,27.3,35.9,27,35.9z"/>
</g>
<path class="st0" d="M27,54C12.1,54,0,41.9,0,27S12.1,0,27,0s27,12.1,27,27S41.9,54,27,54z M27,2.4C13.4,2.4,2.4,13.4,2.4,27
	s11,24.6,24.6,24.6s24.6-11,24.6-24.6S40.6,2.4,27,2.4z"/>
</svg>
