<?xml version="1.0" encoding="utf-8"?>
<!-- Generator: Adobe Illustrator 27.4.0, SVG Export Plug-In . SVG Version: 6.00 Build 0)  -->
<svg version="1.1" id="Layer_1" xmlns="http://www.w3.org/2000/svg" xmlns:xlink="http://www.w3.org/1999/xlink" x="0px" y="0px"
	 viewBox="0 0 26 36" style="enable-background:new 0 0 26 36;" xml:space="preserve">
<style type="text/css">
	.st0{fill:#77C2EE;}
</style>
<g>
	<path class="st0" d="M6.8,36H2.2C1,36,0,35,0,33.8V2.2C0,1,1,0,2.2,0h4.6C8,0,9,1,9,2.2v31.6C9,35,8,36,6.8,36z"/>
	<path class="st0" d="M23.8,36h-4.6C18,36,17,35,17,33.8V2.2C17,1,18,0,19.2,0h4.6C25,0,26,1,26,2.2v31.6C26,35,25,36,23.8,36z"/>
</g>
</svg>
