<?xml version="1.0" encoding="utf-8"?>
<!-- Generator: Adobe Illustrator 27.4.0, SVG Export Plug-In . SVG Version: 6.00 Build 0)  -->
<svg version="1.1" id="Layer_1" xmlns="http://www.w3.org/2000/svg" xmlns:xlink="http://www.w3.org/1999/xlink" x="0px" y="0px"
	 viewBox="0 0 64 92" style="enable-background:new 0 0 64 92;" xml:space="preserve">
<style type="text/css">
	.st0{fill:#0B71B6;}
	.st1{fill:#FFFFFF;}
</style>
<polygon class="st0" points="0,19.2 64,19.2 58.2,84.2 32,92 5.1,84.2 "/>
<polygon class="st1" points="11.3,32.2 52.7,32.2 48.9,74.5 32,79.3 14.4,74.5 14,61.2 22.3,61.2 22.4,68 31.6,70.3 41.6,68 
	42.4,57 13.1,57 12.7,48.7 43.3,48.9 44,41 11.3,41 "/>
<polygon class="st0" points="36.6,3.6 36.6,0 30.9,0 28.5,0 26.8,0 26.8,8.1 28.5,8.1 30.9,8.1 32.5,8.1 32.5,9.1 26.8,9.1 
	26.8,12.7 32.5,12.7 36.6,12.7 36.6,9.1 36.6,8.1 36.6,4.6 32.5,4.6 30.9,4.6 30.9,3.6 "/>
<polygon class="st0" points="48.9,3.6 48.9,0 43.2,0 40.8,0 39.1,0 39.1,8.1 40.8,8.1 43.2,8.1 44.8,8.1 44.8,9.1 39.1,9.1 
	39.1,12.7 44.8,12.7 48.9,12.7 48.9,9.1 48.9,8.1 48.9,4.6 44.8,4.6 43.2,4.6 43.2,3.6 "/>
<polygon class="st0" points="24.2,4.4 24.2,0 18.7,0 14.5,0 14.3,0 14.3,12.6 14.5,12.6 18.7,12.6 24.2,12.6 24.2,8.1 18.7,8.1 
	18.7,4.4 "/>
</svg>
