<?xml version="1.0" encoding="utf-8"?>
<!-- Generator: Adobe Illustrator 27.4.0, SVG Export Plug-In . SVG Version: 6.00 Build 0)  -->
<svg version="1.1" id="Layer_1" xmlns="http://www.w3.org/2000/svg" xmlns:xlink="http://www.w3.org/1999/xlink" x="0px" y="0px"
	 viewBox="0 0 60 60" style="enable-background:new 0 0 60 60;" xml:space="preserve">
<style type="text/css">
	.st0{fill:#026BA9;}
</style>
<path class="st0" d="M47.2,57.1L32.4,42.3l-4.5,4.5c-4.6,4.6-6.9,6.9-9.4,6.4s-3.6-3.6-5.9-9.7L5.1,23C0.5,10.7-1.7,4.6,1.5,1.5
	S10.7,0.5,23,5.1l20.4,7.5c6.1,2.2,9.2,3.4,9.7,5.9c0.6,2.5-1.8,4.8-6.4,9.4l-4.5,4.5L57,47.2c1.6,1.6,2.3,2.3,2.7,3.1
	c0.5,1.1,0.5,2.4,0,3.5c-0.4,0.8-1.1,1.7-2.7,3.1c-1.6,1.6-2.3,2.3-3.1,2.7c-1.1,0.5-2.4,0.5-3.5,0C49.5,59.3,48.7,58.5,47.2,57.1z"
	/>
</svg>
