<?xml version="1.0" encoding="utf-8"?>
<!-- Generator: Adobe Illustrator 27.4.0, SVG Export Plug-In . SVG Version: 6.00 Build 0)  -->
<svg version="1.1" id="Layer_1" xmlns="http://www.w3.org/2000/svg" xmlns:xlink="http://www.w3.org/1999/xlink" x="0px" y="0px"
	 viewBox="0 0 62 62" style="enable-background:new 0 0 62 62;" xml:space="preserve">
<style type="text/css">
	.st0{fill:#026BA9;}
</style>
<path class="st0" d="M48.8,59L33.5,43.7l-4.7,4.7c-4.8,4.8-7.2,7.2-9.7,6.6c-2.6-0.6-3.7-3.7-6.1-10L5.2,23.8
	c-4.7-12.7-7-19-3.7-22.2s9.5-1,22.2,3.7L44.8,13c6.3,2.3,9.5,3.5,10,6.1c0.6,2.6-1.8,5-6.6,9.7l-4.7,4.7l15.3,15.3
	c1.6,1.6,2.4,2.4,2.8,3.2c0.5,1.1,0.5,2.5,0,3.6c-0.4,0.9-1.1,1.7-2.8,3.2c-1.6,1.6-2.4,2.4-3.2,2.8c-1.1,0.5-2.5,0.5-3.6,0
	C51.1,61.3,50.3,60.5,48.8,59z"/>
</svg>
