<?xml version="1.0" encoding="utf-8"?>
<!-- Generator: Adobe Illustrator 27.4.0, SVG Export Plug-In . SVG Version: 6.00 Build 0)  -->
<svg version="1.1" id="Layer_1" xmlns="http://www.w3.org/2000/svg" xmlns:xlink="http://www.w3.org/1999/xlink" x="0px" y="0px"
	 viewBox="0 0 65 65" style="enable-background:new 0 0 65 65;" xml:space="preserve">
<style type="text/css">
	.st0{fill:#026BA9;}
</style>
<path class="st0" d="M51.1,61.8l-16-16l-4.9,4.9c-5,5-7.5,7.5-10.2,6.9c-2.7-0.6-3.9-3.9-6.4-10.5L5.5,24.9C0.6,11.6-1.8,5,1.6,1.6
	c3.4-3.4,10-1,23.3,3.9L47,13.6c6.6,2.4,10,3.7,10.5,6.4c0.6,2.7-1.9,5.2-6.9,10.2l-4.9,4.9l16,16c1.7,1.7,2.5,2.5,2.9,3.4
	c0.5,1.2,0.5,2.6,0,3.8c-0.4,0.9-1.2,1.8-2.9,3.4c-1.7,1.7-2.5,2.5-3.4,2.9c-1.2,0.5-2.6,0.5-3.8,0C53.6,64.2,52.7,63.4,51.1,61.8z"
	/>
</svg>
