<?xml version="1.0" encoding="utf-8"?>
<!-- Generator: Adobe Illustrator 27.4.0, SVG Export Plug-In . SVG Version: 6.00 Build 0)  -->
<svg version="1.1" id="Layer_1" xmlns="http://www.w3.org/2000/svg" xmlns:xlink="http://www.w3.org/1999/xlink" x="0px" y="0px"
	 viewBox="0 0 44 66" style="enable-background:new 0 0 44 66;" xml:space="preserve">
<style type="text/css">
	.st0{fill:#00B6FF;}
	.st1{fill:#FF3737;}
	.st2{fill:#874FFF;}
	.st3{fill:#24CB71;}
	.st4{fill:#FF7237;}
</style>
<g>
	<ellipse class="st0" cx="32" cy="30" rx="10" ry="10"/>
	<path class="st1" d="M12,0C6.5,0,2,4.5,2,10s4.5,10,10,10h10V0H12z"/>
	<path class="st2" d="M12,20C6.5,20,2,24.5,2,30s4.5,10,10,10h10V20H12z"/>
	<path class="st3" d="M12,40C6.5,40,2,44.5,2,50s4.5,10,10,10s10-4.5,10-10V40H12z"/>
	<path class="st4" d="M32,0H22v20h10c5.5,0,10-4.5,10-10S37.5,0,32,0z"/>
</g>
</svg>
