<?xml version="1.0" encoding="utf-8"?>
<!-- Generator: Adobe Illustrator 27.4.0, SVG Export Plug-In . SVG Version: 6.00 Build 0)  -->
<svg version="1.1" id="Layer_1" xmlns="http://www.w3.org/2000/svg" xmlns:xlink="http://www.w3.org/1999/xlink" x="0px" y="0px"
	 viewBox="0 0 44 66" style="enable-background:new 0 0 44 66;" xml:space="preserve">
<style type="text/css">
	.st0{fill:#00B6FF;}
	.st1{fill:#FF3737;}
	.st2{fill:#874FFF;}
	.st3{fill:#24CB71;}
	.st4{fill:#FF7237;}
</style>
<g>
	<ellipse class="st0" cx="32" cy="33" rx="10" ry="10"/>
	<path class="st1" d="M12,3C6.5,3,2,7.5,2,13s4.5,10,10,10h10V3H12z"/>
	<path class="st2" d="M12,23C6.5,23,2,27.5,2,33s4.5,10,10,10h10V23H12z"/>
	<path class="st3" d="M12,43C6.5,43,2,47.5,2,53s4.5,10,10,10s10-4.5,10-10V43H12z"/>
	<path class="st4" d="M32,3H22v20h10c5.5,0,10-4.5,10-10S37.5,3,32,3z"/>
</g>
</svg>
