<?xml version="1.0" encoding="utf-8"?>
<!-- Generator: Adobe Illustrator 27.4.0, SVG Export Plug-In . SVG Version: 6.00 Build 0)  -->
<svg version="1.1" id="Layer_1" xmlns="http://www.w3.org/2000/svg" xmlns:xlink="http://www.w3.org/1999/xlink" x="0px" y="0px"
	 viewBox="0 0 44 66" style="enable-background:new 0 0 44 66;" xml:space="preserve">
<style type="text/css">
	.st0{fill:#00B6FF;}
	.st1{fill:#FF3737;}
	.st2{fill:#874FFF;}
	.st3{fill:#24CB71;}
	.st4{fill:#FF7237;}
</style>
<g>
	<ellipse class="st0" cx="33" cy="33" rx="11" ry="11"/>
	<path class="st1" d="M11,0C4.9,0,0,4.9,0,11s4.9,11,11,11h11V0H11z"/>
	<path class="st2" d="M11,22C4.9,22,0,26.9,0,33s4.9,11,11,11h11V22H11z"/>
	<path class="st3" d="M11,44C4.9,44,0,48.9,0,55s4.9,11,11,11s11-4.9,11-11V44H11z"/>
	<path class="st4" d="M33,0H22v22h11c6.1,0,11-4.9,11-11C44,4.9,39,0,33,0z"/>
</g>
</svg>
