<?xml version="1.0" encoding="utf-8"?>
<!-- Generator: Adobe Illustrator 27.4.0, SVG Export Plug-In . SVG Version: 6.00 Build 0)  -->
<svg version="1.1" id="Layer_1" xmlns="http://www.w3.org/2000/svg" xmlns:xlink="http://www.w3.org/1999/xlink" x="0px" y="0px"
	 viewBox="0 0 64 92" style="enable-background:new 0 0 64 92;" xml:space="preserve">
<style type="text/css">
	.st0{fill:#E65126;}
	.st1{fill:#FFFFFF;}
</style>
<g>
	<polygon class="st0" points="0,19.1 64,19.1 58.2,84.1 32,92 5.1,84.1 	"/>
	<polygon class="st1" points="11.9,32.1 51.9,32.1 51.9,40.6 20.5,40.6 21.2,48.7 50.6,48.7 48.7,73.4 32,78.5 14.9,73.1 14,60.7 
		22.6,60.7 22.8,66.7 31.9,69.8 41.3,66.7 42,56.6 13.6,57.2 	"/>
</g>
<polygon class="st0" points="42.3,0 39.6,4.8 36.9,0 32.9,0 32.9,12.3 36.9,12.3 36.9,6.2 39.6,10.5 39.6,10.5 39.6,10.5 39.6,10.5 
	39.6,10.5 42.3,6.2 42.3,12.3 46.3,12.3 46.3,0 "/>
<polygon class="st0" points="52.6,8.3 52.6,0 48.6,0 48.6,12.3 50,12.3 52.6,12.3 58,12.3 58,8.3 "/>
<polygon class="st0" points="31.1,0 19.5,0 19.5,4 23.1,4 23.1,12.3 27.6,12.3 27.6,4 31.1,4 "/>
<polygon class="st0" points="14.1,0 14.1,4.4 9.7,4.4 9.7,0 5.7,0 5.7,12.3 9.7,12.3 9.7,7.9 14.1,7.9 14.1,12.3 18.1,12.3 18.1,0 
	"/>
</svg>
