<?xml version="1.0" encoding="utf-8"?>
<!-- Generator: Adobe Illustrator 27.4.0, SVG Export Plug-In . SVG Version: 6.00 Build 0)  -->
<svg version="1.1" id="Layer_1" xmlns="http://www.w3.org/2000/svg" xmlns:xlink="http://www.w3.org/1999/xlink" x="0px" y="0px"
	 viewBox="0 0 64 92" style="enable-background:new 0 0 64 92;" xml:space="preserve">
<style type="text/css">
	.st0{fill:#E7A121;}
	.st1{fill:#FFFFFF;}
</style>
<g>
	<polygon class="st0" points="0,19.1 64,19.1 58.2,84.1 32,92 5.1,84.1 	"/>
	<polygon class="st1" points="15.9,31.8 49.5,31.8 51,45.2 42.7,45.2 42.7,39.8 22.9,39.8 22.9,48.8 51,48.8 49,73.8 32.4,79.3 
		15.1,74.1 14.2,61.3 22.1,61.3 22.9,67.6 32,71 41.6,67.7 42.7,56.9 14.2,57 	"/>
</g>
<polygon class="st0" points="25.8,0 25.8,8.1 19.7,8.1 19.7,12.5 25.8,12.5 28.1,12.5 30.2,12.5 30.2,0 "/>
<polygon class="st0" points="44.6,8.1 40.6,4.4 44.6,4.4 44.6,0 33.9,0 33.9,4.4 37.8,8.1 33.9,8.1 33.9,12.5 44.6,12.5 "/>
</svg>
